<?xml version="1.0" encoding="UTF-8"?>
<svg version="1.1" xmlns="http://www.w3.org/2000/svg" width="500" height="500">
<path d="M0 0 C165 0 330 0 500 0 C500 165 500 330 500 500 C335 500 170 500 0 500 C0 335 0 170 0 0 Z " fill="#FEFEFE" transform="translate(0,0)"/>
<path d="M0 0 C11.00333969 6.21296753 18.91384526 15.95521836 23.62988281 27.65234375 C25.13820355 30.16828751 26.43128555 30.70388889 29.109375 31.8515625 C29.97892822 32.23820068 30.84848145 32.62483887 31.74438477 33.02319336 C32.67436279 33.42803955 33.60434082 33.83288574 34.5625 34.25 C53.81244356 43.04153134 73.45372873 57.40429988 83.90625 76.28515625 C88.63394796 84.76102912 92.67033937 88.16506991 101.95703125 91.22265625 C113.23229286 95.02441781 122.57948182 103.72831697 128.1484375 114.1171875 C132.40921329 123.33375924 133.57099621 132.42764236 130.12231445 142.21679688 C125.20175663 154.7810177 116.17533597 167.35889478 104.86157227 174.93066406 C99.18489842 178.75055558 97.1034546 182.23907676 94.875 188.625 C91.11798356 198.42319273 86.47050641 207.20966038 79.578125 215.22265625 C77.23307433 218.41337784 77.33440371 220.60769461 77.28125 224.44140625 C76.06060897 230.12755904 69.02896382 233.34358001 64.5 236.375 C62.79098835 237.53024716 61.0826869 238.68654548 59.375 239.84375 C58.02148438 240.76027344 58.02148438 240.76027344 56.640625 241.6953125 C52.72709897 244.36559131 48.84668853 247.08212382 44.96582031 249.79956055 C29.96603108 260.29620265 29.96603108 260.29620265 22.75 265.0625 C21.21666016 266.08150391 21.21666016 266.08150391 19.65234375 267.12109375 C16.53289464 268.77307161 14.34251921 269.50826656 10.8125 269.625 C8.33203125 268.4453125 8.33203125 268.4453125 5.625 266.75 C-1.32160915 263.28863118 -7.61874887 263.06681121 -15.3125 262.9375 C-47.26653819 262.39002808 -74.64383905 253.58176598 -99.1875 232.625 C-99.90292969 232.04878906 -100.61835938 231.47257813 -101.35546875 230.87890625 C-106.3680144 226.79583927 -111.04486895 221.99917266 -114.51953125 216.52734375 C-116.76864203 213.96219867 -118.90344877 213.38635041 -122.125 212.3125 C-137.66697423 206.67506515 -147.93850862 198.66488477 -156.0625 184.3125 C-158.77513528 177.83231572 -159.43834593 170.01368228 -157.50390625 163.2265625 C-154.51316851 156.15303342 -150.54516212 149.39839947 -144.4375 144.6875 C-139.63840866 140.14043971 -140.10467513 133.64387352 -139.625 127.453125 C-138.54241343 113.93161875 -134.12901413 101.71544599 -128.1875 89.625 C-127.7028125 88.62726563 -127.218125 87.62953125 -126.71875 86.6015625 C-116.04557485 65.90746179 -96.87662716 45.31256618 -74.94921875 36.29296875 C-66.8095677 32.93777012 -64.05198044 28.74549841 -60.69140625 20.9765625 C-56.89749523 12.52156079 -50.56266984 8.07888188 -42.3125 4.3125 C-39.36463197 3.66396903 -37.2327697 3.66853525 -34.25 3.8125 C-28.67379589 3.96366216 -26.39517807 2.14571022 -22.1875 -1.375 C-14.79400774 -3.83949742 -7.03669547 -3.23578613 0 0 Z " fill="#1E0983" transform="translate(263.1875,74.375)"/>
<path d="M0 0 C0 0.99 0 1.98 0 3 C-1.35532837 3.21148682 -1.35532837 3.21148682 -2.73803711 3.42724609 C-6.08071609 3.95316724 -9.42192292 4.48702095 -12.76245117 5.02636719 C-14.2101822 5.25842016 -15.65842992 5.48727265 -17.10717773 5.71289062 C-19.18616688 6.03722147 -21.26304315 6.37291188 -23.33984375 6.7109375 C-25.21724243 7.00943604 -25.21724243 7.00943604 -27.13256836 7.31396484 C-28.0788208 7.54035645 -29.02507324 7.76674805 -30 8 C-30.33 8.66 -30.66 9.32 -31 10 C-30.46632812 10.16580566 -29.93265625 10.33161133 -29.3828125 10.50244141 C-23.39990133 12.42126867 -17.70196197 14.74195672 -12 17.375 C-11.14277344 17.74882812 -10.28554687 18.12265625 -9.40234375 18.5078125 C-3.26621078 21.34735422 -3.26621078 21.34735422 -1.91015625 24.671875 C-1.99857735 26.96313482 -2.41505453 28.79020601 -3 31 C-3.07905064 33.33199388 -3.08798769 35.66832622 -3 38 C-1.93354885 39.29633621 -1.93354885 39.29633621 0.5625 39.0625 C1.366875 39.041875 2.17125 39.02125 3 39 C3.70173653 34.61414671 4.10834375 30.44209357 4 26 C9.08131527 27.54967801 13.73737863 29.6642843 18.51171875 31.95703125 C19.32059036 32.3418718 20.12946198 32.72671234 20.96284485 33.12321472 C23.53929906 34.34971591 26.1134875 35.58088389 28.6875 36.8125 C32.06571334 38.42463269 35.4448265 40.0348715 38.82421875 41.64453125 C39.62963104 42.02852081 40.43504333 42.41251038 41.26486206 42.80813599 C47.14641391 45.60743089 53.05137677 48.34561081 59 51 C57.125 56.875 57.125 56.875 56 58 C55.74994614 60.95817107 55.74994614 60.95817107 56 64 C56.66 64.66 57.32 65.32 58 66 C59.65 65.67 61.3 65.34 63 65 C63.66 61.37 64.32 57.74 65 54 C66.48113281 54.6496875 67.96226562 55.299375 69.48828125 55.96875 C71.42956332 56.81278568 73.37097639 57.65652008 75.3125 58.5 C76.77719727 59.14388672 76.77719727 59.14388672 78.27148438 59.80078125 C79.20927734 60.20683594 80.14707031 60.61289063 81.11328125 61.03125 C81.97735596 61.40830078 82.84143066 61.78535156 83.73168945 62.17382812 C86.06746104 63.17111511 86.06746104 63.17111511 89 63 C88.93099487 62.06933716 88.93099487 62.06933716 88.8605957 61.11987305 C88.66148492 58.30996485 88.48673209 55.4990558 88.3125 52.6875 C88.23966797 51.71103516 88.16683594 50.73457031 88.09179688 49.72851562 C88.03701172 48.79072266 87.98222656 47.85292969 87.92578125 46.88671875 C87.86817627 46.02264404 87.81057129 45.15856934 87.7512207 44.26831055 C88 42 88 42 89.27319336 40.2199707 C92.23109334 38.13024552 95.74888158 38.54954241 99.25 38.5 C107.79594025 38.21660414 115.67260378 36.90814559 124 35 C125.66554252 34.66109443 127.33178677 34.32550502 129 34 C129 33.34 129 32.68 129 32 C127.86949219 31.66484375 126.73898437 31.3296875 125.57421875 30.984375 C118.53737767 28.63555253 111.86347375 25.42714362 105.13647461 22.32226562 C102.83754676 21.2615564 100.53531209 20.20832432 98.23242188 19.15625 C89.05965664 14.95171186 79.9911821 10.58073653 71 6 C71 5.34 71 4.68 71 4 C74.98382541 4.63715611 78.2874991 5.88364395 81.953125 7.5546875 C83.11859863 8.08199463 84.28407227 8.60930176 85.48486328 9.15258789 C86.74001409 9.72649517 87.99505734 10.30063772 89.25 10.875 C91.85576372 12.06081719 94.46289438 13.24360694 97.0703125 14.42578125 C97.72945648 14.72518112 98.38860046 15.02458099 99.06771851 15.33305359 C103.47944845 17.33086964 107.91315861 19.26624178 112.3671875 21.16796875 C114.07793457 21.90200928 114.07793457 21.90200928 115.82324219 22.65087891 C117.9841949 23.57476449 120.14880417 24.49015512 122.31738281 25.39599609 C123.77289551 26.02175537 123.77289551 26.02175537 125.2578125 26.66015625 C126.52842529 27.19588257 126.52842529 27.19588257 127.82470703 27.74243164 C130.36779147 29.21262557 131.52480316 30.46613587 133 33 C133.56835938 35.30810547 133.56835938 35.30810547 133.84375 37.8671875 C133.95420654 38.8250415 134.06466309 39.78289551 134.1784668 40.76977539 C134.33762573 42.30686157 134.33762573 42.30686157 134.5 43.875 C134.74468173 46.03792062 134.99080959 48.20067807 135.23828125 50.36328125 C135.42318115 52.01384521 135.42318115 52.01384521 135.61181641 53.69775391 C136.32209841 59.7400648 137.20301883 65.75959709 138.0859375 71.77880859 C138.76446886 76.57686432 139.13808179 81.15398657 139 86 C138.67 86 138.34 86 138 86 C137.02017063 80.2893544 136.04161342 74.57849278 135.06420898 68.86743164 C134.73187221 66.92661724 134.39919438 64.9858612 134.06616211 63.04516602 C133.58616831 60.24771336 133.10742146 57.45004966 132.62890625 54.65234375 C132.48095108 53.7916478 132.33299591 52.93095184 132.18055725 52.04417419 C131.38255681 47.37066338 130.64567014 42.69704241 130 38 C128.39536551 38.31008884 126.79130769 38.62316287 125.1875 38.9375 C124.29417969 39.11152344 123.40085937 39.28554687 122.48046875 39.46484375 C119.88602829 39.97741153 119.88602829 39.97741153 117 41 C108.68821238 42.06865841 100.36635912 42.12144715 92 42 C92.0721875 42.77601563 92.144375 43.55203125 92.21875 44.3515625 C92.3115625 45.43179688 92.404375 46.51203125 92.5 47.625 C92.5928125 48.66914063 92.685625 49.71328125 92.78125 50.7890625 C93.46607139 61.40890466 92.9291995 72.02254405 92.125 82.6171875 C92.03621582 83.84035675 91.94743164 85.063526 91.85595703 86.32376099 C91.57536927 90.17453825 91.28781449 94.02475685 91 97.875 C90.80682761 100.50908059 90.61411522 103.14319496 90.421875 105.77734375 C89.95322524 112.18529532 89.47887712 118.59280505 89 125 C83.95358569 126.75993171 79.01850621 128.3479562 73.75 129.31640625 C72.6465625 129.52330078 71.543125 129.73019531 70.40625 129.94335938 C69.2821875 130.14767578 68.158125 130.35199219 67 130.5625 C64.74977507 130.97925611 62.49977024 131.39720257 60.25 131.81640625 C59.26515625 131.99631104 58.2803125 132.17621582 57.265625 132.36157227 C54.74133592 132.85506927 52.26141318 133.41180438 49.76049805 134.00463867 C44.72874121 135.12901777 39.71486911 135.67705677 34.58203125 136.109375 C33.59225784 136.19346619 32.60248444 136.27755737 31.5827179 136.36419678 C20.73466784 137.20794165 9.90057099 137.30241542 -0.9753418 137.26074219 C-4.35548223 137.24986164 -7.73510822 137.26080061 -11.11523438 137.2734375 C-13.30208449 137.27211812 -15.48893428 137.26956032 -17.67578125 137.265625 C-19.16347771 137.27169769 -19.16347771 137.27169769 -20.68122864 137.27789307 C-27.00352464 137.23576305 -32.85108787 136.47130507 -39 135 C-38.45785369 111.78908562 -37.67878854 88.59326453 -36.7265625 65.39550781 C-36.30797638 55.05410826 -35.94218008 44.72015732 -35.7890625 34.37109375 C-35.77397644 33.47656998 -35.75889038 32.5820462 -35.74334717 31.66041565 C-35.67379365 27.51296218 -35.62186041 23.3670002 -35.60546875 19.21899414 C-35.58418363 17.77098335 -35.56209978 16.32298398 -35.5390625 14.875 C-35.53084473 13.63492188 -35.52262695 12.39484375 -35.51416016 11.1171875 C-35 8 -35 8 -33.33520508 5.64941406 C-30.52240601 3.66266335 -28.50005161 3.21570882 -25.09765625 2.734375 C-23.96005859 2.56679687 -22.82246094 2.39921875 -21.65039062 2.2265625 C-20.46638672 2.06929687 -19.28238281 1.91203125 -18.0625 1.75 C-16.88236328 1.57726562 -15.70222656 1.40453125 -14.48632812 1.2265625 C-9.62146011 0.53276129 -4.92191242 -0.10641973 0 0 Z " fill="#F39B51" transform="translate(190,136)"/>
<path d="M0 0 C15.89059557 8.97252626 22.82484632 23.82772953 27.8125 40.625 C29.17416622 45.52704141 30.37885749 50.46637447 31.55273438 55.41625977 C32.06845067 57.5875538 32.59604052 59.7557263 33.125 61.92382812 C34.70436734 68.4852402 36.06147569 74.91631312 36.8125 81.625 C32.41686348 80.97240015 28.6468236 79.35303132 24.6484375 77.5 C23.97454987 77.19304199 23.30066223 76.88608398 22.60635376 76.56982422 C20.46443581 75.59315854 18.32586448 74.60941824 16.1875 73.625 C14.04141838 72.64190031 11.89466594 71.660298 9.7472229 70.68017578 C8.41408231 70.07119676 7.0818302 69.46026807 5.75057983 68.84716797 C3.12488202 67.64360827 0.55564743 66.53938248 -2.1875 65.625 C-2.27314209 66.63288574 -2.35878418 67.64077148 -2.44702148 68.67919922 C-2.76870562 72.46262871 -3.09136765 76.2459743 -3.41430664 80.02929688 C-3.55324022 81.65850635 -3.69191792 83.28773767 -3.83032227 84.91699219 C-4.55899233 93.49267603 -5.29683825 102.06427052 -6.1875 110.625 C-12.0625 108.75 -12.0625 108.75 -13.1875 107.625 C-13.80878521 99.38155033 -12.79920038 90.96662399 -12.1875 82.75 C-11.99879697 80.16935852 -11.81124475 77.58863256 -11.625 75.0078125 C-11.54121094 73.87746582 -11.45742187 72.74711914 -11.37109375 71.58251953 C-11.22735316 69.26699625 -11.1875 66.94498048 -11.1875 64.625 C-21.92248065 59.58651178 -32.69877041 54.64466436 -43.5 49.75 C-45.73265514 48.73767661 -47.96520334 47.72511893 -50.19755554 46.71212769 C-51.56960744 46.08957445 -52.94184224 45.46742412 -54.31428528 44.84573364 C-58.96428206 42.73660897 -58.96428206 42.73660897 -61.1875 41.625 C-59.42015353 47.00081973 -59.42015353 47.00081973 -56.5 51.75 C-54.56482082 54.51454169 -54.62926001 56.34534004 -55.1875 59.625 C-57.8397856 61.89838765 -59.51651036 62.58026736 -63 62.8125 C-64.0828125 62.7196875 -64.0828125 62.7196875 -65.1875 62.625 C-65.12949219 62.01011719 -65.07148438 61.39523438 -65.01171875 60.76171875 C-64.96660156 59.95347656 -64.92148438 59.14523438 -64.875 58.3125 C-64.81699219 57.51199219 -64.75898438 56.71148437 -64.69921875 55.88671875 C-64.98206198 53.34480508 -64.98206198 53.34480508 -67.70703125 51.83203125 C-68.52558594 51.43371094 -69.34414062 51.03539062 -70.1875 50.625 C-68.72361156 35.65800267 -63.79119746 19.71232418 -51.88671875 9.6875 C-46.15404057 5.67944265 -41.30565455 3.48309444 -34.25 3.8125 C-28.67379589 3.96366216 -26.39517807 2.14571022 -22.1875 -1.375 C-14.79400774 -3.83949742 -7.03669547 -3.23578613 0 0 Z " fill="#F5AD49" transform="translate(263.1875,74.375)"/>
<path d="M0 0 C7.89548405 2.40334134 15.23160033 5.73735753 22.6875 9.25 C23.93837709 9.83509227 25.1893541 10.41997097 26.44042969 11.00463867 C34.69398211 14.8711258 42.9029844 18.81451261 51 23 C50.85903487 26.62520605 50.71131601 30.25010841 50.5625 33.875 C50.52318359 34.88820312 50.48386719 35.90140625 50.44335938 36.9453125 C50.20746152 42.60686108 49.8117303 48.20958398 49.20727539 53.84326172 C48.95723662 56.44496076 48.90017611 59.01232745 48.9375 61.625 C48.94652344 62.46289062 48.95554687 63.30078125 48.96484375 64.1640625 C48.97644531 64.76992187 48.98804688 65.37578125 49 66 C50.98 66.99 52.96 67.98 55 69 C54.9690625 67.70320313 54.938125 66.40640625 54.90625 65.0703125 C54.90625 57.30456253 55.75802111 49.5968922 56.5 41.875 C56.64495408 40.3307688 56.78948859 38.78649815 56.93359375 37.2421875 C57.2842294 33.49431961 57.64052982 29.74703043 58 26 C62.70658695 27.46659798 67.14455136 29.3429513 71.609375 31.4140625 C72.69048805 31.91079971 72.69048805 31.91079971 73.79344177 32.41757202 C75.32541846 33.12178304 76.85677178 33.82735153 78.38754272 34.53417969 C82.32976785 36.35442816 86.27643026 38.16500841 90.22265625 39.9765625 C90.9901973 40.3292218 91.75773834 40.6818811 92.54853821 41.04522705 C100.66592354 44.77179331 108.82053965 48.41189618 117 52 C117 52.66 117 53.32 117 54 C114.98135603 54.65264429 112.95996273 55.29678746 110.9375 55.9375 C109.81214844 56.29714844 108.68679688 56.65679687 107.52734375 57.02734375 C100.60935012 58.93496326 93.69166636 59.24941206 86.5625 59.5625 C85.64017578 59.60568359 84.71785156 59.64886719 83.76757812 59.69335938 C81.51183837 59.79854931 79.25600501 59.90069107 77 60 C76.94271582 65.54940474 77.06989416 71.02488731 77.5 76.5625 C77.5928125 77.78066406 77.685625 78.99882812 77.78125 80.25390625 C77.8534375 81.16011719 77.925625 82.06632812 78 83 C75.51129794 83.90202956 74.27193663 84.08462506 71.70996094 83.28735352 C70.89301758 82.90506592 70.07607422 82.52277832 69.234375 82.12890625 C68.34492188 81.71962891 67.45546875 81.31035156 66.5390625 80.88867188 C65.61867188 80.45103516 64.69828125 80.01339844 63.75 79.5625 C62.81414062 79.12873047 61.87828125 78.69496094 60.9140625 78.24804688 C58.6043209 77.17566685 56.30016329 76.09273597 54 75 C53.81824219 76.04800781 53.81824219 76.04800781 53.6328125 77.1171875 C53.46523437 78.02726562 53.29765625 78.93734375 53.125 79.875 C52.96257812 80.77992188 52.80015625 81.68484375 52.6328125 82.6171875 C52 85 52 85 50 87 C46.70285207 86.67028521 45.3773161 86.3773161 43 84 C42.47957959 79.31621632 43.33952848 76.83107898 46 73 C46.33 72.34 46.66 71.68 47 71 C46.13318604 70.72542969 45.26637207 70.45085937 44.37329102 70.16796875 C41.1440341 69.04987039 38.12245738 67.7572657 35.02734375 66.3125 C33.88942383 65.78293701 32.75150391 65.25337402 31.57910156 64.70776367 C30.36517513 64.13863547 29.15130911 63.56937839 27.9375 63 C26.691171 62.41818223 25.44475088 61.83655963 24.19824219 61.25512695 C13.43735665 56.22950173 2.708029 51.13724564 -8 46 C-7.85691406 47.13888672 -7.85691406 47.13888672 -7.7109375 48.30078125 C-7.60007813 49.29464844 -7.48921875 50.28851563 -7.375 51.3125 C-7.25898438 52.29863281 -7.14296875 53.28476563 -7.0234375 54.30078125 C-7 57 -7 57 -9 60 C-11.5 60.3125 -11.5 60.3125 -14 60 C-16 58 -16 58 -16.1875 54.875 C-15.9952374 50.90157303 -15.49341957 46.94735658 -15 43 C-24.24 38.71 -33.48 34.42 -43 30 C-42.505 28.515 -42.505 28.515 -42 27 C-38.1263657 26.32523211 -34.25089817 25.66162968 -30.375 25 C-29.28058594 24.80921875 -28.18617188 24.6184375 -27.05859375 24.421875 C-25.46337891 24.15117187 -25.46337891 24.15117187 -23.8359375 23.875 C-22.86188965 23.70742187 -21.8878418 23.53984375 -20.88427734 23.3671875 C-18 23 -18 23 -12 23 C-11.34 18.05 -10.68 13.1 -10 8 C-7.69 9.32 -5.38 10.64 -3 12 C-2.875 18.75 -2.875 18.75 -4 21 C-1.03 20.01 1.94 19.02 5 18 C5.66284109 12.69727125 4.08802501 10.07176793 1.09375 5.9296875 C0 4 0 4 0 0 Z " fill="#4A1088" transform="translate(202,116)"/>
<path d="M0 0 C7.80149958 2.46628051 15.31500334 5.50345299 22.875 8.625 C25.28849814 9.61856942 27.70277492 10.61021429 30.1171875 11.6015625 C31.17534668 12.03807129 32.23350586 12.47458008 33.32373047 12.92431641 C35.19301551 13.67564553 37.088757 14.362919 39 15 C37.88103018 18.35690946 37.37845619 18.70265113 34.5546875 20.57421875 C33.45096802 21.31623535 33.45096802 21.31623535 32.32495117 22.07324219 C31.51646729 22.60594727 30.7079834 23.13865234 29.875 23.6875 C28.13854128 24.85169958 26.40290036 26.01711963 24.66796875 27.18359375 C23.74677246 27.80089355 22.82557617 28.41819336 21.87646484 29.05419922 C17.93660237 31.71934129 14.04188094 34.44684932 10.14672852 37.17675781 C-4.60142353 47.50934647 -4.60142353 47.50934647 -12.0625 52.4375 C-13.08472656 53.11683594 -14.10695313 53.79617188 -15.16015625 54.49609375 C-18.3035415 56.16074756 -20.44165326 56.88521462 -24 57 C-27.1484375 55.8203125 -27.1484375 55.8203125 -30.375 54.125 C-35.45613877 51.61062205 -39.35585159 50.22133915 -45 50 C-44.01 49.01 -44.01 49.01 -43 48 C-43.50308685 47.77613113 -44.00617371 47.55226227 -44.52450562 47.3216095 C-56.46795955 41.99836533 -68.32888742 36.52703543 -80.12426758 30.88369751 C-84.43705099 28.82072559 -88.75342022 26.76529485 -93.0703125 24.7109375 C-93.91905945 24.30702286 -94.7678064 23.90310822 -95.64227295 23.48695374 C-106.71538154 18.22479596 -117.84801244 13.09267882 -129 8 C-129 7.67 -129 7.34 -129 7 C-128.2353241 7.00666183 -127.47064819 7.01332367 -126.68280029 7.02018738 C-119.33346953 7.08130822 -111.9842687 7.12647158 -104.63474655 7.15543652 C-100.85989954 7.17083 -97.08526917 7.1915586 -93.31054688 7.22631836 C-73.62200379 7.40261842 -54.55927994 6.55605905 -35 4 C-29.72 3.34 -24.44 2.68 -19 2 C-18.67 16.19 -18.34 30.38 -18 45 C-13.19313845 32.06318498 -13.19313845 32.06318498 -8.3972168 19.12231445 C-7.789945 17.49415629 -7.18230367 15.8661359 -6.57421875 14.23828125 C-6.11142517 12.98114319 -6.11142517 12.98114319 -5.63928223 11.6986084 C-4.07826459 7.53403412 -2.47572201 3.728497 0 0 Z " fill="#E4557F" transform="translate(298,287)"/>
<path d="M0 0 C15.77055352 -1.13775536 30.54155602 5.17084446 42.4375 15.375 C49.49861258 22.12611252 54.59812953 29.21741067 55.19140625 39.23046875 C54.9807863 43.37839229 54.03282283 46.84678152 52.5625 50.6875 C52.16260864 51.73296997 52.16260864 51.73296997 51.75463867 52.79956055 C40.58081068 80.34735631 11.27572303 95.11097942 -14.5 106.125 C-33.30578366 113.92829188 -52.93494569 118.76296035 -73 122 C-73.86044922 122.13889648 -74.72089844 122.27779297 -75.60742188 122.42089844 C-81.72554353 123.38751617 -87.85501256 124.22429449 -94 125 C-94.80244141 125.10586426 -95.60488281 125.21172852 -96.43164062 125.32080078 C-131.89977527 129.88078305 -181.68931559 131.72705931 -212.015625 109.609375 C-220.33604193 102.86132032 -226.75658801 95.44366906 -228.578125 84.5390625 C-229.07677414 74.27142332 -226.05395976 66.51966211 -219.31640625 58.83203125 C-213.46468768 52.54128842 -206.85596169 46.64640516 -199 43 C-198.34 43.33 -197.68 43.66 -197 44 C-197.76183594 44.556875 -198.52367187 45.11375 -199.30859375 45.6875 C-202.56419422 48.09363668 -205.7906531 50.53272742 -209 53 C-209.84304687 53.64582031 -210.68609375 54.29164063 -211.5546875 54.95703125 C-218.40605878 60.58748343 -223.97474043 67.39745256 -225.60546875 76.30859375 C-225.97906511 84.88111571 -223.85087737 91.45543109 -218.30859375 97.99609375 C-198.44748972 117.27670622 -159.77609761 114.60887556 -134.0896759 114.32185364 C-121.57399667 114.12322287 -109.34073066 113.15159032 -97 111 C-95.79617676 110.79068848 -94.59235352 110.58137695 -93.35205078 110.36572266 C-70.70584711 106.33814735 -47.55996629 102.19491323 -26 94 C-25.08250977 93.65453125 -24.16501953 93.3090625 -23.21972656 92.953125 C5.41556498 82.36014261 5.41556498 82.36014261 29.6953125 64.2421875 C31 63 31 63 33 63 C33.39058594 62.13955078 33.39058594 62.13955078 33.7890625 61.26171875 C35.08980563 58.83226625 36.61114581 56.9268143 38.375 54.8125 C43.24390415 48.60185191 46.88909134 42.36843813 46.4375 34.25390625 C44.56146037 24.58895209 37.08821956 18.61326021 29.453125 13.19140625 C20.34641627 7.41610651 10.20244395 4.29535912 0 1 C0 0.67 0 0.34 0 0 Z " fill="#F8C833" transform="translate(336,164)"/>
<path d="M0 0 C4.70658695 1.46659798 9.14455136 3.3429513 13.609375 5.4140625 C14.33011703 5.74522064 15.05085907 6.07637878 15.79344177 6.41757202 C17.32541846 7.12178304 18.85677178 7.82735153 20.38754272 8.53417969 C24.32976785 10.35442816 28.27643026 12.16500841 32.22265625 13.9765625 C32.9901973 14.3292218 33.75773834 14.6818811 34.54853821 15.04522705 C42.66592354 18.77179331 50.82053965 22.41189618 59 26 C59 26.66 59 27.32 59 28 C56.98135603 28.65264429 54.95996273 29.29678746 52.9375 29.9375 C51.81214844 30.29714844 50.68679688 30.65679687 49.52734375 31.02734375 C42.60935012 32.93496326 35.69166636 33.24941206 28.5625 33.5625 C27.64017578 33.60568359 26.71785156 33.64886719 25.76757812 33.69335938 C23.51183837 33.79854931 21.25600501 33.90069107 19 34 C18.94271582 39.54940474 19.06989416 45.02488731 19.5 50.5625 C19.5928125 51.78066406 19.685625 52.99882812 19.78125 54.25390625 C19.88953125 55.61322266 19.88953125 55.61322266 20 57 C17.51129794 57.90202956 16.27193663 58.08462506 13.70996094 57.28735352 C12.4845459 56.71392212 12.4845459 56.71392212 11.234375 56.12890625 C10.34492188 55.71962891 9.45546875 55.31035156 8.5390625 54.88867188 C7.61867188 54.45103516 6.69828125 54.01339844 5.75 53.5625 C4.81414062 53.12873047 3.87828125 52.69496094 2.9140625 52.24804688 C0.6043209 51.17566685 -1.69983671 50.09273597 -4 49 C-4.12117187 49.69867188 -4.24234375 50.39734375 -4.3671875 51.1171875 C-4.61855469 52.48230469 -4.61855469 52.48230469 -4.875 53.875 C-5.03742188 54.77992188 -5.19984375 55.68484375 -5.3671875 56.6171875 C-6 59 -6 59 -8 61 C-11.29714793 60.67028521 -12.6226839 60.3773161 -15 58 C-15.53178657 53.21392089 -14.52065593 50.97488051 -12 47 C-11.27833809 44.68308546 -10.59940471 42.35151077 -10 40 C-7.69 40.99 -5.38 41.98 -3 43 C-3.0309375 41.70320313 -3.061875 40.40640625 -3.09375 39.0703125 C-3.09375 31.30456253 -2.24197889 23.5968922 -1.5 15.875 C-1.35504592 14.3307688 -1.21051141 12.78649815 -1.06640625 11.2421875 C-0.7157706 7.49431961 -0.35947018 3.74703043 0 0 Z " fill="#54138A" transform="translate(260,142)"/>
<path d="M0 0 C1.00097326 6.04995538 1.99777654 12.10057745 2.99072266 18.15185547 C3.3290947 20.21031244 3.66860524 22.26858259 4.00927734 24.32666016 C4.49876586 27.28499749 4.98415548 30.24398258 5.46875 33.203125 C5.62186646 34.12305237 5.77498291 35.04297974 5.93273926 35.99078369 C6.14295715 37.28166901 6.14295715 37.28166901 6.35742188 38.59863281 C6.48177612 39.35364075 6.60613037 40.10864868 6.73425293 40.88653564 C7 43 7 43 7 47 C5.52406372 47.3556604 5.52406372 47.3556604 4.01831055 47.71850586 C0.36711491 48.59870708 -3.28366687 49.48061432 -6.93432617 50.36303711 C-8.51429186 50.74468779 -10.09436934 51.12587596 -11.67456055 51.5065918 C-13.9460967 52.0539585 -16.21722538 52.60298821 -18.48828125 53.15234375 C-19.19463211 53.3221727 -19.90098297 53.49200165 -20.6287384 53.66697693 C-23.46288565 54.35395453 -26.23172373 55.07724124 -29 56 C-29.576691 50.36307551 -30.14606224 44.72547437 -30.70898438 39.0871582 C-30.90103807 37.17354935 -31.09500842 35.26013177 -31.29101562 33.34692383 C-33.37857926 12.9452496 -33.37857926 12.9452496 -33 4 C-31.74445313 3.89042969 -30.48890625 3.78085938 -29.1953125 3.66796875 C-17.3369001 2.65414455 -17.3369001 2.65414455 -5.91015625 -0.51171875 C-3.60284206 -1.10152299 -2.26035966 -0.63764268 0 0 Z " fill="#7C188F" transform="translate(321,174)"/>
<path d="M0 0 C7.80149958 2.46628051 15.31500334 5.50345299 22.875 8.625 C25.28849814 9.61856942 27.70277492 10.61021429 30.1171875 11.6015625 C31.17534668 12.03807129 32.23350586 12.47458008 33.32373047 12.92431641 C35.19301551 13.67564553 37.088757 14.362919 39 15 C37.88103018 18.35690946 37.37845619 18.70265113 34.5546875 20.57421875 C33.81887451 21.06889648 33.08306152 21.56357422 32.32495117 22.07324219 C31.51646729 22.60594727 30.7079834 23.13865234 29.875 23.6875 C28.13854128 24.85169958 26.40290036 26.01711963 24.66796875 27.18359375 C23.74677246 27.80089355 22.82557617 28.41819336 21.87646484 29.05419922 C17.93630569 31.71954198 14.04131849 34.44730485 10.14575195 37.17724609 C2.7139516 42.38447437 -4.72333222 47.586196 -12.3125 52.5625 C-13.38113281 53.26503906 -14.44976562 53.96757812 -15.55078125 54.69140625 C-16.35902344 55.12324219 -17.16726563 55.55507813 -18 56 C-18.66 55.67 -19.32 55.34 -20 55 C-18.82687366 48.1899188 -17.09170012 41.89946977 -14.62890625 35.44921875 C-14.14441261 34.15646782 -14.14441261 34.15646782 -13.65013123 32.83760071 C-12.97217765 31.03381895 -12.2904999 29.23143282 -11.60522461 27.43041992 C-10.55982527 24.68046403 -9.5281104 21.92565397 -8.49804688 19.16992188 C-7.8341327 17.40855265 -7.16944611 15.64747435 -6.50390625 13.88671875 C-6.19755753 13.06894455 -5.8912088 12.25117035 -5.57557678 11.40861511 C-4.02510501 7.35236313 -2.40273197 3.64737186 0 0 Z " fill="#F8AE46" transform="translate(298,287)"/>
<path d="M0 0 C2.50189344 0.25808367 5.00070629 0.53110789 7.5 0.8125 C8.54414063 0.91788086 8.54414063 0.91788086 9.609375 1.02539062 C19.98534807 2.22631343 19.98534807 2.22631343 24 5 C25.87384342 7.83120004 26.72080764 10.80956534 27.625 14.0625 C27.902229 14.9704834 28.17945801 15.8784668 28.46508789 16.81396484 C37 45.63232963 37 45.63232963 37 55 C32.66486548 54.43177354 29.15960377 53.36982355 25.19921875 51.53125 C24.14025391 51.04269531 23.08128906 50.55414063 21.99023438 50.05078125 C20.90033203 49.53902344 19.81042969 49.02726562 18.6875 48.5 C17.57826172 47.98824219 16.46902344 47.47648437 15.32617188 46.94921875 C7.15752679 43.15752679 7.15752679 43.15752679 6 42 C5.87843055 40.3610707 5.82030026 38.71735374 5.7890625 37.07421875 C5.76271729 36.05505371 5.73637207 35.03588867 5.70922852 33.98583984 C5.6675354 32.35316162 5.6675354 32.35316162 5.625 30.6875 C5.34000181 22.05122983 4.83271382 14.21351471 2 6 C1.63777344 4.90945312 1.27554687 3.81890625 0.90234375 2.6953125 C0.60457031 1.80585937 0.30679688 0.91640625 0 0 Z " fill="#1C0882" transform="translate(255,97)"/>
<path d="M0 0 C0.34064504 2.16552915 0.67214255 4.33249797 1 6.5 C1.185625 7.7065625 1.37125 8.913125 1.5625 10.15625 C2.01939038 14.1703583 2.07140463 17.96563826 2 22 C-26.86462882 34 -26.86462882 34 -35 34 C-37.94109297 16.24840312 -37.94109297 16.24840312 -37 8 C-33.34797258 4.34797258 -27.70599721 3.98081934 -22.78857422 2.8034668 C-20.76817606 2.31687749 -18.7534239 1.81058979 -16.73828125 1.30273438 C-15.45824219 0.99271484 -14.17820312 0.68269531 -12.859375 0.36328125 C-11.10318848 -0.06537231 -11.10318848 -0.06537231 -9.31152344 -0.50268555 C-5.89312272 -1.0160505 -3.35179341 -0.7628417 0 0 Z " fill="#62128C" transform="translate(330,222)"/>
<path d="M0 0 C0.19392167 4.81929854 0.37235904 9.6388444 0.53710938 14.45922852 C0.59513708 16.09544855 0.6572303 17.73153008 0.72363281 19.36743164 C1.39772035 36.10216541 1.39772035 36.10216541 -1 44 C-5.64368349 43.69715108 -8.82178464 42.70734657 -12.9375 40.5 C-17.42748359 38.1140516 -20.94411826 37.28088232 -26 37 C-25.34 36.34 -24.68 35.68 -24 35 C-30.6 32.03 -37.2 29.06 -44 26 C-41.41094961 24.27396641 -38.90545725 22.89016238 -36.1328125 21.49609375 C-24.30077596 15.48153295 -13.25913459 9.35427395 -2.73046875 1.25390625 C-1 0 -1 0 0 0 Z " fill="#E24887" transform="translate(279,300)"/>
<path d="M0 0 C0.99 7.26 1.98 14.52 3 22 C-1.35910912 23.14270385 -5.71867776 24.28317071 -10.07983398 25.41796875 C-11.56324927 25.80467865 -13.04632568 26.19269087 -14.52905273 26.58203125 C-16.66041711 27.14145196 -18.79295646 27.69617699 -20.92578125 28.25 C-21.58838455 28.42499023 -22.25098785 28.59998047 -22.93367004 28.78027344 C-25.71814699 29.49911058 -28.1090539 30 -31 30 C-32.3213258 21.2580141 -33.33165588 12.862582 -33 4 C-31.74445313 3.89042969 -30.48890625 3.78085938 -29.1953125 3.66796875 C-17.3369001 2.65414455 -17.3369001 2.65414455 -5.91015625 -0.51171875 C-4 -1 -4 -1 0 0 Z " fill="#A62095" transform="translate(321,174)"/>
<path d="M0 0 C0.51032668 3.47773158 1.00633268 6.95736775 1.5 10.4375 C1.64308594 11.41138672 1.78617187 12.38527344 1.93359375 13.38867188 C4.09874755 28.8025049 4.09874755 28.8025049 2 33 C-7.33723079 30.53576094 -16.07470894 26.73714227 -24.93286133 22.9621582 C-26.85839567 22.14363425 -28.7865038 21.33141821 -30.71484375 20.51953125 C-31.85042725 20.03589111 -32.98601074 19.55225098 -34.15600586 19.05395508 C-36.96333991 17.82625238 -36.96333991 17.82625238 -40 18 C-40 16.68 -40 15.36 -40 14 C-39.26998779 13.75354736 -38.53997559 13.50709473 -37.7878418 13.25317383 C-34.419047 12.11213472 -31.05328966 10.96237183 -27.6875 9.8125 C-25.96563477 9.23145508 -25.96563477 9.23145508 -24.20898438 8.63867188 C-17.68443226 6.40221067 -11.4199297 3.94876744 -5.21801758 0.92456055 C-3 0 -3 0 0 0 Z " fill="#3C0D88" transform="translate(337,270)"/>
<path d="M0 0 C25.74 0 51.48 0 78 0 C74.8700595 3.1299405 71.78432775 4.83614624 67.875 6.75 C67.17648926 7.09417969 66.47797852 7.43835938 65.75830078 7.79296875 C60.52398975 10.33504909 55.2325745 12.7296615 49.875 15 C49.17745605 15.30260742 48.47991211 15.60521484 47.76123047 15.91699219 C42.43323665 18.1151923 38.46062426 18.92156422 32.9831543 16.87011719 C31.94070557 16.35094727 30.89825684 15.83177734 29.82421875 15.296875 C28.08688477 14.44416016 28.08688477 14.44416016 26.31445312 13.57421875 C25.10524355 12.96659379 23.89626036 12.3585181 22.6875 11.75 C20.3180657 10.57475032 17.94590087 9.40508886 15.57421875 8.234375 C14.45321777 7.67814453 13.3322168 7.12191406 12.17724609 6.54882812 C8.16090338 4.59096135 4.09989633 2.77530345 0 1 C0 0.67 0 0.34 0 0 Z " fill="#E66E6E" transform="translate(169,294)"/>
<path d="M0 0 C2.31 1.32 4.62 2.64 7 4 C7.20163 9.46641331 7.08385977 14.24844381 5.578125 19.55078125 C3.48408848 28.42213866 2.67959456 37.77422651 3.125 46.86328125 C3 49 3 49 1 52 C-1.5 52.3125 -1.5 52.3125 -4 52 C-6 50 -6 50 -6.1875 46.875 C-5.9952374 42.90157303 -5.49341957 38.94735658 -5 35 C-14.24 30.71 -23.48 26.42 -33 22 C-32.505 20.515 -32.505 20.515 -32 19 C-28.1263657 18.32523211 -24.25089817 17.66162968 -20.375 17 C-19.28058594 16.80921875 -18.18617188 16.6184375 -17.05859375 16.421875 C-15.46337891 16.15117187 -15.46337891 16.15117187 -13.8359375 15.875 C-12.86188965 15.70742187 -11.8878418 15.53984375 -10.88427734 15.3671875 C-8 15 -8 15 -2 15 C-1.34 10.05 -0.68 5.1 0 0 Z " fill="#E37568" transform="translate(192,124)"/>
<path d="M0 0 C-1.11896982 3.35690946 -1.62154381 3.70265113 -4.4453125 5.57421875 C-5.18112549 6.06889648 -5.91693848 6.56357422 -6.67504883 7.07324219 C-7.48353271 7.60594727 -8.2920166 8.13865234 -9.125 8.6875 C-10.86145872 9.85169958 -12.59709964 11.01711963 -14.33203125 12.18359375 C-15.71382568 13.10954346 -15.71382568 13.10954346 -17.12353516 14.05419922 C-21.06369431 16.71954198 -24.95868151 19.44730485 -28.85424805 22.17724609 C-36.2860484 27.38447437 -43.72333222 32.586196 -51.3125 37.5625 C-52.38113281 38.26503906 -53.44976562 38.96757812 -54.55078125 39.69140625 C-55.35902344 40.12324219 -56.16726563 40.55507813 -57 41 C-57.66 40.67 -58.32 40.34 -59 40 C-58.74069171 38.45635301 -58.46690524 36.9151362 -58.1875 35.375 C-58.03667969 34.51648438 -57.88585937 33.65796875 -57.73046875 32.7734375 C-55.42336033 24.013828 -50.5573295 21.31900121 -43.0625 16.875 C-41.99306152 16.23062988 -40.92362305 15.58625977 -39.82177734 14.92236328 C-37.62063839 13.59619908 -35.41684206 12.27443583 -33.21044922 10.95703125 C-30.19651893 9.11979435 -27.25254867 7.20846781 -24.31640625 5.25 C-23.43782959 4.67910645 -22.55925293 4.10821289 -21.65405273 3.52001953 C-20.01125405 2.45146296 -18.38321599 1.35973315 -16.77368164 0.24169922 C-10.54627087 -3.70771785 -6.62223802 -2.93609559 0 0 Z " fill="#FECE36" transform="translate(337,302)"/>
<path d="M0 0 C3.98382541 0.63715611 7.2874991 1.88364395 10.953125 3.5546875 C12.11859863 4.08199463 13.28407227 4.60930176 14.48486328 5.15258789 C15.74001409 5.72649517 16.99505734 6.30063772 18.25 6.875 C20.85576372 8.06081719 23.46289438 9.24360694 26.0703125 10.42578125 C27.05902847 10.87488106 27.05902847 10.87488106 28.06771851 11.33305359 C32.47944845 13.33086964 36.91315861 15.26624178 41.3671875 17.16796875 C42.50768555 17.6573291 43.64818359 18.14668945 44.82324219 18.65087891 C46.9841949 19.57476449 49.14880417 20.49015512 51.31738281 21.39599609 C52.28772461 21.81316895 53.25806641 22.2303418 54.2578125 22.66015625 C55.52842529 23.19588257 55.52842529 23.19588257 56.82470703 23.74243164 C59.36779147 25.21262557 60.52480316 26.46613587 62 29 C62.56835938 31.30810547 62.56835938 31.30810547 62.84375 33.8671875 C63.00943481 35.30396851 63.00943481 35.30396851 63.1784668 36.76977539 C63.33762573 38.30686157 63.33762573 38.30686157 63.5 39.875 C63.74468173 42.03792062 63.99080959 44.20067807 64.23828125 46.36328125 C64.36154785 47.46365723 64.48481445 48.5640332 64.61181641 49.69775391 C65.32209841 55.7400648 66.20301883 61.75959709 67.0859375 67.77880859 C67.76446886 72.57686432 68.13808179 77.15398657 68 82 C67.67 82 67.34 82 67 82 C66.02017063 76.2893544 65.04161342 70.57849278 64.06420898 64.86743164 C63.73187221 62.92661724 63.39919438 60.9858612 63.06616211 59.04516602 C62.58616831 56.24771336 62.10742146 53.45004966 61.62890625 50.65234375 C61.48095108 49.7916478 61.33299591 48.93095184 61.18055725 48.04417419 C60.38255681 43.37066338 59.64567014 38.69704241 59 34 C57.39536551 34.31008884 55.79130769 34.62316287 54.1875 34.9375 C53.29417969 35.11152344 52.40085937 35.28554687 51.48046875 35.46484375 C48.88602829 35.97741153 48.88602829 35.97741153 46 37 C37.68821238 38.06865841 29.36635912 38.12144715 21 38 C21.0721875 38.77601563 21.144375 39.55203125 21.21875 40.3515625 C22.63109432 56.78968114 21.51864766 72.61395327 20 89 C19.67 89 19.34 89 19 89 C19 80.42 19 71.84 19 63 C15.7 62.34 12.4 61.68 9 61 C6.33580117 59.86114518 3.89856942 58.74541518 1.375 57.375 C0.75238281 57.05015625 0.12976563 56.7253125 -0.51171875 56.390625 C-2.01372874 55.60495824 -3.50780469 54.80415137 -5 54 C-5 53.01 -5 52.02 -5 51 C1.13326089 52.91035995 6.83137959 55.21771749 12.6171875 58.01171875 C15.03191298 59.19155478 15.03191298 59.19155478 18 59 C17.95399658 58.37955811 17.90799316 57.75911621 17.8605957 57.11987305 C17.66148492 54.30996485 17.48673209 51.4990558 17.3125 48.6875 C17.23966797 47.71103516 17.16683594 46.73457031 17.09179688 45.72851562 C17.03701172 44.79072266 16.98222656 43.85292969 16.92578125 42.88671875 C16.83937378 41.59060669 16.83937378 41.59060669 16.7512207 40.26831055 C17 38 17 38 18.27319336 36.2199707 C21.23109334 34.13024552 24.74888158 34.54954241 28.25 34.5 C36.79594025 34.21660414 44.67260378 32.90814559 53 31 C54.66554252 30.66109443 56.33178677 30.32550502 58 30 C58 29.34 58 28.68 58 28 C56.30423828 27.49726563 56.30423828 27.49726563 54.57421875 26.984375 C47.53737767 24.63555253 40.86347375 21.42714362 34.13647461 18.32226562 C31.83754676 17.2615564 29.53531209 16.20832432 27.23242188 15.15625 C18.05965664 10.95171186 8.9911821 6.58073653 0 2 C0 1.34 0 0.68 0 0 Z " fill="#F4C335" transform="translate(261,140)"/>
<path d="M0 0 C-3.97626472 4.35271581 -8.26856478 7.2938996 -13.3125 10.3125 C-14.10068115 10.78888916 -14.8888623 11.26527832 -15.70092773 11.75610352 C-23.2681551 16.26857303 -31.04608962 20.22255761 -39 24 C-39.91910156 24.46664063 -40.83820313 24.93328125 -41.78515625 25.4140625 C-46.30004156 27.63004962 -49.03665584 28.68753701 -54 27 C-57.71173579 25.42251229 -61.36742732 23.75164982 -65 22 C-61.97478555 20.4359195 -58.90222516 19.10603707 -55.74609375 17.828125 C-54.72580078 17.41046875 -53.70550781 16.9928125 -52.65429688 16.5625 C-50.53866886 15.69929294 -48.42151733 14.83980887 -46.30273438 13.984375 C-39.26026518 11.09153856 -32.60601913 7.78422919 -26 4 C-26.495 3.01 -26.495 3.01 -27 2 C-24.18814406 1.66027199 -21.37571764 1.32809788 -18.5625 1 C-17.3878418 0.85691406 -17.3878418 0.85691406 -16.18945312 0.7109375 C-10.75624381 0.08488869 -5.46925737 -0.08759571 0 0 Z " fill="#E66077" transform="translate(272,291)"/>
<path d="M0 0 C1.65322266 0.01740234 1.65322266 0.01740234 3.33984375 0.03515625 C4.99693359 0.04869141 4.99693359 0.04869141 6.6875 0.0625 C7.54214844 0.07410156 8.39679688 0.08570312 9.27734375 0.09765625 C10.08243477 1.5695593 10.87058949 3.05072692 11.65234375 4.53515625 C12.09320313 5.35886719 12.5340625 6.18257813 12.98828125 7.03125 C16.04713314 14.3076098 16.56005785 21.34117646 16.40234375 29.16015625 C16.39332031 30.02576172 16.38429687 30.89136719 16.375 31.78320312 C16.35174098 33.88814404 16.31588383 35.99293967 16.27734375 38.09765625 C6.69997205 35.06169202 6.69997205 35.06169202 2.27734375 32.59765625 C1.53484375 32.19546875 0.79234375 31.79328125 0.02734375 31.37890625 C-1.72265625 30.09765625 -1.72265625 30.09765625 -2.72265625 27.09765625 C-3.73588497 18.51648462 -4.18417799 9.73082756 -3.72265625 1.09765625 C-2.72265625 0.09765625 -2.72265625 0.09765625 0 0 Z " fill="#1D0982" transform="translate(236.72265625,96.90234375)"/>
<path d="M0 0 C0.22918417 3.31139418 0.42943249 6.62396405 0.625 9.9375 C0.68945312 10.86369141 0.75390625 11.78988281 0.8203125 12.74414062 C1.16663663 18.91303913 0.60459575 24.02869901 -1 30 C-5.64368349 29.69715108 -8.82178464 28.70734657 -12.9375 26.5 C-17.42748359 24.1140516 -20.94411826 23.28088232 -26 23 C-25.34 22.34 -24.68 21.68 -24 21 C-26.31 20.01 -28.62 19.02 -31 18 C-28.7139935 16.47599566 -26.49113927 15.13570808 -24.0859375 13.828125 C-23.32853271 13.41353027 -22.57112793 12.99893555 -21.79077148 12.57177734 C-20.99356689 12.13559082 -20.1963623 11.6994043 -19.375 11.25 C-13.55477273 8.0487881 -7.86770283 4.79553299 -2.43359375 0.9609375 C-1 0 -1 0 0 0 Z " fill="#DC3A92" transform="translate(279,314)"/>
<path d="M0 0 C1.13764351 4.26616316 2 7.56486311 2 12 C-26.17391304 20 -26.17391304 20 -33 20 C-33.33 16.04 -33.66 12.08 -34 8 C-29.64125819 6.85602518 -25.28130705 5.71682533 -20.92016602 4.58203125 C-19.43675073 4.19532135 -17.95367432 3.80730913 -16.47094727 3.41796875 C-14.33958289 2.85854804 -12.20704354 2.30382301 -10.07421875 1.75 C-9.0803138 1.48751465 -9.0803138 1.48751465 -8.06632996 1.21972656 C-5.28185301 0.50088942 -2.8909461 0 0 0 Z " fill="#921C92" transform="translate(324,196)"/>
<path d="M0 0 C2.8100346 1.79363911 4.50940468 3.01880935 6 6 C6.93762008 16.40604586 6.93762008 16.40604586 4.125 21.1875 C0.5032797 24.27661437 -2.17381206 24.33373332 -6.8046875 24.2890625 C-9 24 -9 24 -11.5 22.1875 C-14.84749567 17.30573548 -14.62591401 11.70833579 -14 6 C-10.49784199 0.16306999 -6.64123496 -0.95420043 0 0 Z " fill="#231088" transform="translate(113,356)"/>
<path d="M0 0 C10.52592172 3.95332145 17.17716393 10.53588629 23 20 C23.495 21.485 23.495 21.485 24 23 C22.99195313 22.85046875 21.98390625 22.7009375 20.9453125 22.546875 C18.44585477 22.20041551 15.94035638 21.89334003 13.4296875 21.640625 C12.25664062 21.51171875 11.08359375 21.3828125 9.875 21.25 C8.69679688 21.13140625 7.51859375 21.0128125 6.3046875 20.890625 C2.21811982 19.78928052 0.73235199 18.18163134 -2 15 C-2.70382813 14.22398438 -3.40765625 13.44796875 -4.1328125 12.6484375 C-4.79023438 11.89820312 -5.44765625 11.14796875 -6.125 10.375 C-8.35046633 7.8377952 -10.58332521 5.35663318 -13 3 C-8.83732843 -0.12200368 -5.06903437 -0.94328118 0 0 Z " fill="#FCFBFB" transform="translate(254,78)"/>
<path d="M0 0 C0.495 4.95 0.495 4.95 1 10 C-3.05537841 11.00279556 -7.1121854 11.99952558 -11.17041016 12.99072266 C-12.55004811 13.32858656 -13.92928589 13.66808901 -15.30810547 14.00927734 C-17.29290858 14.50011186 -19.27908799 14.98498744 -21.265625 15.46875 C-23.05661621 15.90864258 -23.05661621 15.90864258 -24.88378906 16.35742188 C-28 17 -28 17 -32 17 C-33.32229189 14.35541621 -33.09677194 12.32238699 -33.0625 9.375 C-33.05347656 8.37210938 -33.04445313 7.36921875 -33.03515625 6.3359375 C-33.02355469 5.56507813 -33.01195312 4.79421875 -33 4 C-31.74445313 3.89042969 -30.48890625 3.78085938 -29.1953125 3.66796875 C-17.3369001 2.65414455 -17.3369001 2.65414455 -5.91015625 -0.51171875 C-4 -1 -4 -1 0 0 Z " fill="#C82699" transform="translate(321,174)"/>
<path d="M0 0 C0.66 0 1.32 0 2 0 C2.07476562 0.86238281 2.14953125 1.72476563 2.2265625 2.61328125 C3.25494973 12.16115092 5.59944993 20.79161508 8.66015625 29.8828125 C9.67340873 32.90011372 10.48767657 35.85015967 11 39 C4.2551413 38.00076167 -0.91397292 34.24247911 -5.5 29.3125 C-8.91926229 24.04113731 -8.82009022 18.07167714 -8 12 C-6.40288672 8.62394823 -4.35864646 5.87803752 -2 3 C-1.34 2.01 -0.68 1.02 0 0 Z " fill="#F5F4F9" transform="translate(122,227)"/>
<path d="M0 0 C0.33 7.92 0.66 15.84 1 24 C-4.91703857 22.02765381 -10.12233701 20.14801477 -15.5625 17.3125 C-16.50319336 16.83200195 -16.50319336 16.83200195 -17.46289062 16.34179688 C-18.97814795 15.56681794 -20.48951872 14.78424704 -22 14 C-21.1875 7.28125 -21.1875 7.28125 -19.5 4.75 C-13.17499663 0.32249764 -7.72884909 0 0 0 Z " fill="#1D0983" transform="translate(226,99)"/>
<path d="M0 0 C2.22808159 -0.10853983 4.45769932 -0.18583307 6.6875 -0.25 C7.92886719 -0.29640625 9.17023438 -0.3428125 10.44921875 -0.390625 C14.53455169 0.05880657 16.09488246 1.17820323 19 4 C18.25 8.75 18.25 8.75 16 11 C16.7425 11.5259375 16.7425 11.5259375 17.5 12.0625 C19.81346701 15.05072823 19.4568702 17.34503841 19 21 C16.51474485 23.74951012 15.06192114 23.99505948 11.328125 24.29296875 C9.96843965 24.27316751 8.6089066 24.23759202 7.25 24.1875 C6.55261719 24.17396484 5.85523438 24.16042969 5.13671875 24.14648438 C3.42414459 24.1112945 1.71197059 24.05749155 0 24 C0 23.34 0 22.68 0 22 C0.66 21.67 1.32 21.34 2 21 C2 15.06 2 9.12 2 3 C1.34 2.67 0.68 2.34 0 2 C0 1.34 0 0.68 0 0 Z " fill="#3B2A95" transform="translate(253,356)"/>
<path d="M0 0 C2.41734542 -0.08117951 4.83194949 -0.14056926 7.25 -0.1875 C7.93191406 -0.21263672 8.61382812 -0.23777344 9.31640625 -0.26367188 C12.44394627 -0.30921857 14.67061605 -0.1709461 17.46875 1.28125 C19 3 19 3 19.25 6.6875 C19.1675 7.780625 19.085 8.87375 19 10 C17.02 10.99 17.02 10.99 15 12 C15.433125 12.69867188 15.86625 13.39734375 16.3125 14.1171875 C16.869375 15.02726562 17.42625 15.93734375 18 16.875 C18.556875 17.77992188 19.11375 18.68484375 19.6875 19.6171875 C21 22 21 22 21 24 C18.25 24.375 18.25 24.375 15 24 C12.58616217 21.06425129 11.1995243 18.59857289 10 15 C9.34 14.67 8.68 14.34 8 14 C8 16.64 8 19.28 8 22 C8.66 22 9.32 22 10 22 C10 22.66 10 23.32 10 24 C6.7 24 3.4 24 0 24 C0 23.34 0 22.68 0 22 C0.66 22 1.32 22 2 22 C2 15.4 2 8.8 2 2 C1.34 2 0.68 2 0 2 C0 1.34 0 0.68 0 0 Z " fill="#2A178B" transform="translate(382,356)"/>
<path d="M0 0 C0 10.56 0 21.12 0 32 C1.98 32.66 3.96 33.32 6 34 C6.33 34.66 6.66 35.32 7 36 C-0.244298 33.86233829 -6.46718285 30.77315981 -13 27 C-12.10885153 7.67614905 -12.10885153 7.67614905 -10 3 C-6.88113561 1.07305831 -3.67460547 0 0 0 Z " fill="#1D0882" transform="translate(208,135)"/>
<path d="M0 0 C-0.66 6.6 -1.32 13.2 -2 20 C-11.72113221 15.77342078 -21.39691084 11.48911531 -31 7 C-30.67 6.01 -30.34 5.02 -30 4 C-26.1263657 3.32523211 -22.25089817 2.66162968 -18.375 2 C-17.28058594 1.80921875 -16.18617188 1.6184375 -15.05859375 1.421875 C-13.46337891 1.15117187 -13.46337891 1.15117187 -11.8359375 0.875 C-10.86188965 0.70742187 -9.8878418 0.53984375 -8.88427734 0.3671875 C-6 0 -6 0 0 0 Z " fill="#200B80" transform="translate(190,139)"/>
<path d="M0 0 C-3.21813115 3.5801709 -6.85184185 5.84628194 -11 8.1875 C-16.77067075 11.50517852 -22.49370036 14.89013478 -28.171875 18.36328125 C-28.79485474 18.74397263 -29.41783447 19.124664 -30.05969238 19.51689148 C-32.58299153 21.05973963 -35.10570899 22.6034753 -37.62451172 24.15365601 C-39.40911468 25.25160232 -41.19651344 26.34487047 -42.984375 27.4375 C-44.02303711 28.07558594 -45.06169922 28.71367187 -46.13183594 29.37109375 C-48.71206477 30.83647397 -51.21806766 31.98187672 -54 33 C-53.52282542 29.10307427 -53.06761532 26.91740941 -50.03393555 24.31054688 C-43.8745306 20.16800316 -37.61101545 16.28185416 -31.1875 12.5625 C-23.45432227 8.10641361 -23.45432227 8.10641361 -15.9296875 3.3125 C-15.34807861 2.92634521 -14.76646973 2.54019043 -14.16723633 2.14233398 C-12.68445817 1.14456618 -11.21834467 0.12215211 -9.75390625 -0.90234375 C-5.95018088 -2.41843854 -3.73665905 -1.41224413 0 0 Z " fill="#FBBD3C" transform="translate(334,301)"/>
<path d="M0 0 C0.33 0 0.66 0 1 0 C2.0773541 7.49175465 1.8388516 14.48905184 1 22 C-8.28259805 25.36094067 -18.0524716 28.31699256 -28 28 C-24.31020752 24.25534072 -20.50565993 20.67043455 -16.625 17.125 C-7.71623855 9.11431175 -7.71623855 9.11431175 0 0 Z " fill="#EA7669" transform="translate(278,239)"/>
<path d="M0 0 C6.99242546 3.49621273 11.17270919 7.58905716 14.875 14.5 C17.34626085 22.18836709 15.57390897 28.02400461 12 35 C10.4641737 37.25462873 8.9143515 39.03390927 7 41 C6.67 41 6.34 41 6 41 C5.97421875 39.90945312 5.9484375 38.81890625 5.921875 37.6953125 C5.53726475 26.38346946 3.7106705 15.96692106 1 5 C0.65463749 3.33578438 0.31501319 1.67022621 0 0 Z " fill="#F6F5FA" transform="translate(361,178)"/>
<path d="M0 0 C1.65 0 3.3 0 5 0 C12 15.05 12 15.05 12 22 C12.66 22 13.32 22 14 22 C14 22.66 14 23.32 14 24 C10.37 24 6.74 24 3 24 C3 23.34 3 22.68 3 22 C3.66 22 4.32 22 5 22 C4.67 20.35 4.34 18.7 4 17 C1.69 16.67 -0.62 16.34 -3 16 C-3 17.98 -3 19.96 -3 22 C-2.34 22 -1.68 22 -1 22 C-1 22.66 -1 23.32 -1 24 C-3.64 24 -6.28 24 -9 24 C-9 23.34 -9 22.68 -9 22 C-8.34 22 -7.68 22 -7 22 C-6.82984375 21.24976563 -6.6596875 20.49953125 -6.484375 19.7265625 C-4.86056828 12.86857031 -2.81565433 6.46028302 0 0 Z " fill="#261389" transform="translate(337,356)"/>
<path d="M0 0 C1.65 0 3.3 0 5 0 C12 15.05 12 15.05 12 22 C12.66 22 13.32 22 14 22 C14 22.66 14 23.32 14 24 C10.37 24 6.74 24 3 24 C3 23.34 3 22.68 3 22 C3.66 22 4.32 22 5 22 C4.67 20.35 4.34 18.7 4 17 C1.69 16.67 -0.62 16.34 -3 16 C-3 17.98 -3 19.96 -3 22 C-2.34 22 -1.68 22 -1 22 C-1 22.66 -1 23.32 -1 24 C-3.64 24 -6.28 24 -9 24 C-9 23.34 -9 22.68 -9 22 C-8.34 22 -7.68 22 -7 22 C-6.82984375 21.24976563 -6.6596875 20.49953125 -6.484375 19.7265625 C-4.86056828 12.86857031 -2.81565433 6.46028302 0 0 Z " fill="#261389" transform="translate(286,356)"/>
<path d="M0 0 C1.98 0 3.96 0 6 0 C8.66666667 8 11.33333333 16 14 24 C10.7 24 7.4 24 4 24 C4 23.34 4 22.68 4 22 C4.66 22 5.32 22 6 22 C5.67 20.02 5.34 18.04 5 16 C2.69 16 0.38 16 -2 16 C-2.33 17.98 -2.66 19.96 -3 22 C-2.34 22 -1.68 22 -1 22 C-1 22.66 -1 23.32 -1 24 C-3.64 24 -6.28 24 -9 24 C-9 23.34 -9 22.68 -9 22 C-8.34 21.67 -7.68 21.34 -7 21 C-6.06220445 18.8835325 -6.06220445 18.8835325 -5.2734375 16.30859375 C-4.809375 14.89223633 -4.809375 14.89223633 -4.3359375 13.44726562 C-4.01882813 12.45404297 -3.70171875 11.46082031 -3.375 10.4375 C-2.88773437 8.94186523 -2.88773437 8.94186523 -2.390625 7.41601562 C-1.58701801 4.94610589 -0.79048458 2.4741346 0 0 Z " fill="#241188" transform="translate(363,356)"/>
<path d="M0 0 C5.05722071 -0.78474114 5.05722071 -0.78474114 8 0 C10.58081401 2.67809524 12.24888381 5.737796 14 9 C14.928125 10.5159375 14.928125 10.5159375 15.875 12.0625 C16.24625 12.701875 16.6175 13.34125 17 14 C17 10.37 17 6.74 17 3 C16.34 2.67 15.68 2.34 15 2 C15 1.34 15 0.68 15 0 C17.64 0 20.28 0 23 0 C23 0.66 23 1.32 23 2 C22.01 2.495 22.01 2.495 21 3 C20.67 9.93 20.34 16.86 20 24 C18.68 24 17.36 24 16 24 C14.22937284 21.55385626 12.76564772 19.24880543 11.3125 16.625 C10.90966797 15.92632812 10.50683594 15.22765625 10.09179688 14.5078125 C8.6711357 12.03295886 7.2763935 9.552787 6 7 C5.67 11.95 5.34 16.9 5 22 C5.99 22 6.98 22 8 22 C8 22.66 8 23.32 8 24 C5.36 24 2.72 24 0 24 C0 23.34 0 22.68 0 22 C0.99 22 1.98 22 3 22 C2.67 15.73 2.34 9.46 2 3 C1.34 2.67 0.68 2.34 0 2 C0 1.34 0 0.68 0 0 Z " fill="#231088" transform="translate(191,356)"/>
<path d="M0 0 C5.05722071 -0.78474114 5.05722071 -0.78474114 8 0 C10.58081401 2.67809524 12.24888381 5.737796 14 9 C14.928125 10.5159375 14.928125 10.5159375 15.875 12.0625 C16.24625 12.701875 16.6175 13.34125 17 14 C17 10.37 17 6.74 17 3 C16.34 2.67 15.68 2.34 15 2 C15 1.34 15 0.68 15 0 C17.64 0 20.28 0 23 0 C23 0.66 23 1.32 23 2 C22.01 2.495 22.01 2.495 21 3 C20.67 9.93 20.34 16.86 20 24 C18.68 24 17.36 24 16 24 C14.22937284 21.55385626 12.76564772 19.24880543 11.3125 16.625 C10.90966797 15.92632812 10.50683594 15.22765625 10.09179688 14.5078125 C8.6711357 12.03295886 7.2763935 9.552787 6 7 C5.67 11.95 5.34 16.9 5 22 C5.99 22 6.98 22 8 22 C8 22.66 8 23.32 8 24 C5.36 24 2.72 24 0 24 C0 23.34 0 22.68 0 22 C0.99 22 1.98 22 3 22 C2.67 15.73 2.34 9.46 2 3 C1.34 2.67 0.68 2.34 0 2 C0 1.34 0 0.68 0 0 Z " fill="#231088" transform="translate(125,356)"/>
<path d="M0 0 C5.94 0 11.88 0 18 0 C18 2.31 18 4.62 18 7 C17.01 7 16.02 7 15 7 C14.67 5.68 14.34 4.36 14 3 C12.35 2.67 10.7 2.34 9 2 C9 4.64 9 7.28 9 10 C11.31 10 13.62 10 16 10 C16 10.99 16 11.98 16 13 C13.69 13 11.38 13 9 13 C9 15.97 9 18.94 9 22 C10.98 21.67 12.96 21.34 15 21 C15.33 20.01 15.66 19.02 16 18 C16.99 18 17.98 18 19 18 C19 19.98 19 21.96 19 24 C12.73 24 6.46 24 0 24 C0 23.34 0 22.68 0 22 C0.99 22 1.98 22 3 22 C3 15.4 3 8.8 3 2 C2.01 2 1.02 2 0 2 C0 1.34 0 0.68 0 0 Z " fill="#27148A" transform="translate(218,356)"/>
<path d="M0 0 C5.61 0 11.22 0 17 0 C16.21581898 3.92090509 15.79952725 5.75574857 13.93359375 8.98828125 C13.53076172 9.69404297 13.12792969 10.39980469 12.71289062 11.12695312 C12.29201172 11.84818359 11.87113281 12.56941406 11.4375 13.3125 C11.01275391 14.05306641 10.58800781 14.79363281 10.15039062 15.55664062 C9.10648347 17.37468118 8.05407808 19.18783748 7 21 C9.31 21 11.62 21 14 21 C14.33 19.68 14.66 18.36 15 17 C15.99 17 16.98 17 18 17 C18 19.31 18 21.62 18 24 C12.06 24 6.12 24 0 24 C0.7784043 20.10797848 1.28104526 18.08708551 3.06640625 14.79296875 C3.6706543 13.66665039 3.6706543 13.66665039 4.28710938 12.51757812 C4.70798828 11.74865234 5.12886719 10.97972656 5.5625 10.1875 C5.98724609 9.39923828 6.41199219 8.61097656 6.84960938 7.79882812 C7.89396554 5.8626622 8.9442077 3.92994633 10 2 C8.02 2.33 6.04 2.66 4 3 C3.67 4.65 3.34 6.3 3 8 C2.01 8 1.02 8 0 8 C0 5.36 0 2.72 0 0 Z " fill="#28158A" transform="translate(305,356)"/>
<path d="M0 0 C5.46737191 1.74807129 10.75824848 3.65794081 16 6 C16 6.66 16 7.32 16 8 C12.38463742 10.65655722 8.46613317 12.87326278 4.625 15.1875 C3.54476563 15.85458984 2.46453125 16.52167969 1.3515625 17.20898438 C0.3203125 17.83482422 -0.7109375 18.46066406 -1.7734375 19.10546875 C-2.72653809 19.68449951 -3.67963867 20.26353027 -4.66162109 20.86010742 C-5.43328613 21.23627197 -6.20495117 21.61243652 -7 22 C-7.66 21.67 -8.32 21.34 -9 21 C-7.69167236 17.6858367 -6.37764349 14.37396387 -5.0625 11.0625 C-4.68931641 10.11697266 -4.31613281 9.17144531 -3.93164062 8.19726562 C-3.57392578 7.29814453 -3.21621094 6.39902344 -2.84765625 5.47265625 C-2.51773682 4.64000244 -2.18781738 3.80734863 -1.84790039 2.94946289 C-1 1 -1 1 0 0 Z " fill="#F29557" transform="translate(298,287)"/>
<path d="M0 0 C0.33 0 0.66 0 1 0 C1.01417969 0.61488281 1.02835938 1.22976562 1.04296875 1.86328125 C1.09066406 2.67152344 1.13835937 3.47976562 1.1875 4.3125 C1.23970703 5.51326172 1.23970703 5.51326172 1.29296875 6.73828125 C1.80451501 9.26562736 1.80451501 9.26562736 4.5234375 10.4765625 C7 12 7 12 7.55859375 14.28515625 C7.51863281 15.20167969 7.47867187 16.11820313 7.4375 17.0625 C7.39496094 18.11050781 7.35242188 19.15851563 7.30859375 20.23828125 C6.71178524 27.51330141 5.90135508 34.75696808 5 42 C-0.875 40.125 -0.875 40.125 -2 39 C-2.63043422 30.67687758 -1.60909695 22.17188819 -1 13.875 C-0.90332243 12.52346059 -0.80696606 11.17189817 -0.7109375 9.8203125 C-0.47710343 6.54663555 -0.24004935 3.27322607 0 0 Z " fill="#E46673" transform="translate(252,143)"/>
<path d="M0 0 C0 0.99 0 1.98 0 3 C-1.35532837 3.21148682 -1.35532837 3.21148682 -2.73803711 3.42724609 C-6.08071609 3.95316724 -9.42192292 4.48702095 -12.76245117 5.02636719 C-14.2101822 5.25842016 -15.65842992 5.48727265 -17.10717773 5.71289062 C-19.18616688 6.03722147 -21.26304315 6.37291188 -23.33984375 6.7109375 C-25.21724243 7.00943604 -25.21724243 7.00943604 -27.13256836 7.31396484 C-28.0788208 7.54035645 -29.02507324 7.76674805 -30 8 C-30.33 8.66 -30.66 9.32 -31 10 C-30.46705322 10.16218018 -29.93410645 10.32436035 -29.38500977 10.49145508 C-23.31114351 12.41792429 -17.66200477 14.90296587 -11.9375 17.6875 C-11.07189453 18.10322266 -10.20628906 18.51894531 -9.31445312 18.94726562 C-7.20729015 19.96010087 -5.1025906 20.9777159 -3 22 C-3 23.32 -3 24.64 -3 26 C-7.19759919 24.68106727 -11.09645985 23.09759162 -15.0546875 21.1796875 C-16.16328125 20.64472656 -17.271875 20.10976562 -18.4140625 19.55859375 C-19.55617187 19.00300781 -20.69828125 18.44742188 -21.875 17.875 C-23.0403125 17.31167969 -24.205625 16.74835938 -25.40625 16.16796875 C-28.27241534 14.78187239 -31.13691978 13.39245478 -34 12 C-34.1875 9.125 -34.1875 9.125 -34 6 C-30.78018053 3.85345369 -28.97029748 3.49900078 -25.1953125 2.9296875 C-24.05449219 2.75566406 -22.91367188 2.58164063 -21.73828125 2.40234375 C-20.54589844 2.22832031 -19.35351562 2.05429688 -18.125 1.875 C-16.94035156 1.69324219 -15.75570312 1.51148438 -14.53515625 1.32421875 C-4.92477003 -0.11679745 -4.92477003 -0.11679745 0 0 Z " fill="#F6C534" transform="translate(190,136)"/>
<path d="M0 0 C0.495 2.97 0.495 2.97 1 6 C-15.335 9.96 -15.335 9.96 -32 14 C-32.33 11.69 -32.66 9.38 -33 7 C-29.10584752 5.9954514 -25.20976552 4.99880242 -21.31176758 4.00927734 C-19.98732714 3.67190004 -18.6634234 3.33240824 -17.34008789 2.99072266 C-15.43259508 2.49860529 -13.52295462 2.01483654 -11.61328125 1.53125 C-10.46641846 1.23798828 -9.31955566 0.94472656 -8.13793945 0.64257812 C-5.31013042 0.06350761 -2.87218714 -0.13173012 0 0 Z " fill="#B72397" transform="translate(322,184)"/>
<path d="M0 0 C4.92932757 0.64618937 8.99129997 2.72007228 13.4140625 4.859375 C14.22434906 5.24563049 15.03463562 5.63188599 15.86947632 6.02984619 C18.45720432 7.26463752 21.0411906 8.50703291 23.625 9.75 C26.18260603 10.97444241 28.7409692 12.19729006 31.29949951 13.4197998 C32.94632252 14.20669285 34.59285252 14.99419941 36.23907471 15.78234863 C42.12642036 18.59698811 48.03895769 21.34427382 54 24 C53.505 25.485 53.505 25.485 53 27 C48.2343558 26.36706288 44.26029566 24.34928275 40 22.25 C31.17601085 17.98061625 22.26254194 13.93338728 13.3125 9.9375 C12.65209717 9.64242554 11.99169434 9.34735107 11.3112793 9.04333496 C7.54206283 7.35950142 3.77160462 5.67847913 0 4 C0 2.68 0 1.36 0 0 Z " fill="#F7C436" transform="translate(195,163)"/>
<path d="M0 0 C-0.66 4.29 -1.32 8.58 -2 13 C-3.83072917 13.45768229 -5.66145833 13.91536458 -7.4921875 14.37304688 C-8.60980469 14.65245117 -8.60980469 14.65245117 -9.75 14.9375 C-12.91357422 15.72839355 -12.91357422 15.72839355 -16.07714844 16.51928711 C-16.71168945 16.67792236 -17.34623047 16.83655762 -18 17 C-18.74024414 17.18506104 -19.48048828 17.37012207 -20.24316406 17.56079102 C-21.11279785 17.77819946 -21.11279785 17.77819946 -22 18 C-18.5451971 9.94410014 -15.05580339 4.1809348 -6.8125 0.625 C-4 0 -4 0 0 0 Z " fill="#FBFAFB" transform="translate(229,85)"/>
<path d="M0 0 C2.5 0.75 2.5 0.75 5.5 2.75 C4.58734375 3.22566406 4.58734375 3.22566406 3.65625 3.7109375 C-2.98351886 7.24563798 -9.34406978 11.10567831 -15.69921875 15.12402344 C-20.544447 18.17913123 -25.44911023 21.04416619 -30.5 23.75 C-29.796945 19.2508301 -28.77722448 15.83944601 -25.23828125 12.82080078 C-22.38059634 11.02251796 -19.48325414 9.39354859 -16.5 7.8125 C-14.9840625 6.96848633 -14.9840625 6.96848633 -13.4375 6.10742188 C-11.56961807 5.06791578 -9.69523905 4.0399364 -7.8125 3.02758789 C-1.97493609 -0.19749361 -1.97493609 -0.19749361 0 0 Z " fill="#F4A04F" transform="translate(316.5,294.25)"/>
<path d="M0 0 C3.96 0 7.92 0 12 0 C12 0.66 12 1.32 12 2 C11.01 2 10.02 2 9 2 C9 8.6 9 15.2 9 22 C10.98 21.67 12.96 21.34 15 21 C16.45291273 18.53744315 16.45291273 18.53744315 17 16 C17.66 16 18.32 16 19 16 C19 18.64 19 21.28 19 24 C12.73 24 6.46 24 0 24 C0 23.34 0 22.68 0 22 C0.99 22 1.98 22 3 22 C2.67 15.73 2.34 9.46 2 3 C1.34 2.67 0.68 2.34 0 2 C0 1.34 0 0.68 0 0 Z " fill="#2A178B" transform="translate(152,356)"/>
<path d="M0 0 C8.74015859 2.58497994 16.79824845 6.5262547 25 10.4375 C27.8116716 11.77128271 30.62459121 13.1024227 33.4375 14.43359375 C34.10338135 14.74936371 34.7692627 15.06513367 35.45532227 15.39047241 C40.27188918 17.67018826 45.11614979 19.86876626 50 22 C50 22.99 50 23.98 50 25 C45.56380779 24.34476779 41.75181937 22.69680641 37.71484375 20.83203125 C36.66944176 20.35608772 36.66944176 20.35608772 35.60292053 19.87052917 C34.12843135 19.19799108 32.65509946 18.52291064 31.18286133 17.84545898 C28.97146751 16.82812646 26.7566361 15.81863565 24.54101562 14.81054688 C16.27408735 11.03677921 8.0921204 7.1380493 0 3 C0 2.01 0 1.02 0 0 Z " fill="#F3C235" transform="translate(203,113)"/>
<path d="M0 0 C0 1.32 0 2.64 0 4 C-4.05537841 5.00279556 -8.1121854 5.99952558 -12.17041016 6.99072266 C-13.55004811 7.32858656 -14.92928589 7.66808901 -16.30810547 8.00927734 C-18.29290858 8.50011186 -20.27908799 8.98498744 -22.265625 9.46875 C-23.45961914 9.76201172 -24.65361328 10.05527344 -25.88378906 10.35742188 C-29 11 -29 11 -33 11 C-33 8.69 -33 6.38 -33 4 C-31.74445313 3.89042969 -30.48890625 3.78085938 -29.1953125 3.66796875 C-17.3369001 2.65414455 -17.3369001 2.65414455 -5.91015625 -0.51171875 C-3.61335283 -1.09883619 -2.22300408 -0.74100136 0 0 Z " fill="#DB3197" transform="translate(321,174)"/>
<path d="M0 0 C3.96 0 7.92 0 12 0 C12 0.66 12 1.32 12 2 C11.01 2 10.02 2 9 2 C9 8.6 9 15.2 9 22 C9.99 22 10.98 22 12 22 C12 22.66 12 23.32 12 24 C8.04 24 4.08 24 0 24 C0 23.34 0 22.68 0 22 C0.99 22 1.98 22 3 22 C3 15.4 3 8.8 3 2 C2.01 2 1.02 2 0 2 C0 1.34 0 0.68 0 0 Z " fill="#241188" transform="translate(175,356)"/>
<path d="M0 0 C1.13253652 6.22895086 0.70366626 10.91748904 -1 17 C-7.31631828 16.59683075 -11.64993984 14.28767869 -17 11 C-13.55201858 8.15604453 -10.02681212 5.63857848 -6.25 3.25 C-4.80367188 2.32960938 -4.80367188 2.32960938 -3.328125 1.390625 C-1 0 -1 0 0 0 Z " fill="#DD2F9D" transform="translate(279,327)"/>
<path d="M0 0 C0.78375 0.185625 1.5675 0.37125 2.375 0.5625 C4.97089775 1.25962266 4.97089775 1.25962266 7 0 C7.83885377 3.43617708 8.67012919 6.87414337 9.5 10.3125 C9.73847656 11.28896484 9.97695313 12.26542969 10.22265625 13.27148438 C10.44824219 14.20927734 10.67382812 15.14707031 10.90625 16.11328125 C11.11572266 16.97735596 11.32519531 17.84143066 11.54101562 18.73168945 C12 21 12 21 12 24 C8.16655614 23.46757724 5.81968161 22.6865139 3 20 C2.20703125 17.36328125 2.20703125 17.36328125 1.8125 14.3125 C1.66683594 13.25160156 1.52117187 12.19070312 1.37109375 11.09765625 C1.24863281 10.07542969 1.12617188 9.05320313 1 8 C0.88785156 7.15308594 0.77570313 6.30617187 0.66015625 5.43359375 C0.42389805 3.62443846 0.20913359 1.81249109 0 0 Z " fill="#E2726A" transform="translate(288,132)"/>
<path d="M0 0 C3.96 0 7.92 0 12 0 C10.68 0.33 9.36 0.66 8 1 C8 4.3 8 7.6 8 11 C8.66 11.33 9.32 11.66 10 12 C9.34 12 8.68 12 8 12 C8 14.97 8 17.94 8 21 C8.66 21 9.32 21 10 21 C10 21.66 10 22.32 10 23 C6.7 23 3.4 23 0 23 C0 22.34 0 21.68 0 21 C0.66 21 1.32 21 2 21 C2 14.4 2 7.8 2 1 C1.34 0.67 0.68 0.34 0 0 Z " fill="#231088" transform="translate(382,357)"/>
<path d="M0 0 C0.04125 0.61875 0.0825 1.2375 0.125 1.875 C0.41375 2.57625 0.7025 3.2775 1 4 C3.99615946 5.3045656 3.99615946 5.3045656 7 6 C7.05394705 8.60444348 7.09364469 11.20776998 7.125 13.8125 C7.14175781 14.55048828 7.15851563 15.28847656 7.17578125 16.04882812 C7.21074628 19.91246426 7.19397555 21.70903668 5 25 C2.5 25.3125 2.5 25.3125 0 25 C-2 23 -2 23 -2.1875 19.90234375 C-1.98776599 15.74537964 -1.55802034 11.68355562 -1 7.5625 C-0.90460938 6.83095703 -0.80921875 6.09941406 -0.7109375 5.34570312 C-0.47794062 3.563277 -0.23953734 1.78155896 0 0 Z " fill="#D82A9B" transform="translate(188,151)"/>
<path d="M0 0 C1.98 0.99 3.96 1.98 6 3 C5.68010106 6.00160496 5.34275144 9.00092486 5 12 C4.855625 13.299375 4.71125 14.59875 4.5625 15.9375 C4 19 4 19 2 21 C-1.29714793 20.67028521 -2.6226839 20.3773161 -5 18 C-5.53178657 13.21392089 -4.52065593 10.97488051 -2 7 C-1.27833809 4.68308546 -0.59940471 2.35151077 0 0 Z " fill="#DA2B9B" transform="translate(250,182)"/>
<path d="M0 0 C2.4375 0.375 2.4375 0.375 5 1 C6.47793555 3.95587111 6.17053651 6.64997645 6.1875 9.9375 C6.20167969 11.18402344 6.21585938 12.43054688 6.23046875 13.71484375 C6 17 6 17 4 20 C2.35 19.67 0.7 19.34 -1 19 C-2.11630207 15.65109379 -2.16765424 13.02460739 -2.1875 9.5 C-2.20167969 8.3553125 -2.21585937 7.210625 -2.23046875 6.03125 C-2 3 -2 3 0 0 Z " fill="#F6F5FA" transform="translate(107,358)"/>
<path d="M0 0 C3.96 0 7.92 0 12 0 C11.67 0.66 11.34 1.32 11 2 C10.01 1.67 9.02 1.34 8 1 C8 3.97 8 6.94 8 10 C8.66 10.33 9.32 10.66 10 11 C9.34 11 8.68 11 8 11 C8 14.3 8 17.6 8 21 C8.99 21 9.98 21 11 21 C11 21.66 11 22.32 11 23 C7.37 23 3.74 23 0 23 C0 22.34 0 21.68 0 21 C0.66 20.67 1.32 20.34 2 20 C2.05379226 17.04142591 2.09357093 14.08382279 2.125 11.125 C2.14175781 10.28324219 2.15851563 9.44148438 2.17578125 8.57421875 C2.18222656 7.76855469 2.18867188 6.96289062 2.1953125 6.1328125 C2.20578613 5.38918457 2.21625977 4.64555664 2.22705078 3.87939453 C2.1665597 1.75509765 2.1665597 1.75509765 0 0 Z " fill="#1B0783" transform="translate(253,357)"/>
<path d="M0 0 C1.32 0.33 2.64 0.66 4 1 C4.36109542 2.64432706 4.71370076 4.2905208 5.0625 5.9375 C5.25972656 6.85402344 5.45695312 7.77054687 5.66015625 8.71484375 C5.77230469 9.46894531 5.88445312 10.22304688 6 11 C5 12 5 12 1.9375 12.0625 C0.968125 12.041875 -0.00125 12.02125 -1 12 C-1 13.98 -1 15.96 -1 18 C-0.34 18 0.32 18 1 18 C1 18.66 1 19.32 1 20 C-1.64 20 -4.28 20 -7 20 C-7 19.34 -7 18.68 -7 18 C-6.34 18 -5.68 18 -5 18 C-4.70996094 16.80503906 -4.70996094 16.80503906 -4.4140625 15.5859375 C-1.82776801 5.06151142 -1.82776801 5.06151142 0 0 Z " fill="#301E8F" transform="translate(335,360)"/>
<path d="M0 0 C1.32 0.33 2.64 0.66 4 1 C4.36109542 2.64432706 4.71370076 4.2905208 5.0625 5.9375 C5.25972656 6.85402344 5.45695312 7.77054687 5.66015625 8.71484375 C5.77230469 9.46894531 5.88445312 10.22304688 6 11 C5 12 5 12 1.9375 12.0625 C0.968125 12.041875 -0.00125 12.02125 -1 12 C-1 13.98 -1 15.96 -1 18 C-0.34 18 0.32 18 1 18 C1 18.66 1 19.32 1 20 C-1.64 20 -4.28 20 -7 20 C-7 19.34 -7 18.68 -7 18 C-6.34 18 -5.68 18 -5 18 C-4.70996094 16.80503906 -4.70996094 16.80503906 -4.4140625 15.5859375 C-1.82776801 5.06151142 -1.82776801 5.06151142 0 0 Z " fill="#301E8F" transform="translate(284,360)"/>
<path d="M0 0 C0.66 0.33 1.32 0.66 2 1 C1.23816406 1.556875 0.47632813 2.11375 -0.30859375 2.6875 C-3.56419422 5.09363668 -6.7906531 7.53272742 -10 10 C-10.84304687 10.64582031 -11.68609375 11.29164063 -12.5546875 11.95703125 C-19.38221773 17.56789087 -25.2635303 24.47957165 -26.46484375 33.484375 C-26.51563852 38.47354978 -26.07643113 43.12914912 -25 48 C-25.99 48 -26.98 48 -28 48 C-30.50422513 40.48732462 -29.98750463 32.0620704 -26.75 24.875 C-20.86151649 14.49741377 -10.83849929 5.03077297 0 0 Z " fill="#D1A641" transform="translate(137,207)"/>
<path d="M0 0 C5.8317757 5.68224299 5.8317757 5.68224299 6.375 9.9375 C6 13 6 13 3.8125 14.875 C0.9190222 16.03239112 -0.93202432 16.09281271 -4 16 C-3.71653722 14.08210287 -3.4228972 12.16570817 -3.125 10.25 C-2.88136719 8.64898437 -2.88136719 8.64898437 -2.6328125 7.015625 C-2.06776118 4.32291129 -1.36577086 2.36427561 0 0 Z " fill="#FAC932" transform="translate(202,121)"/>
<path d="M0 0 C0.33 0 0.66 0 1 0 C1.01417969 0.61488281 1.02835938 1.22976562 1.04296875 1.86328125 C1.09066406 2.67152344 1.13835937 3.47976562 1.1875 4.3125 C1.22230469 5.11300781 1.25710937 5.91351563 1.29296875 6.73828125 C1.79875323 9.26882416 1.79875323 9.26882416 4.53125 10.40625 C5.3459375 10.9321875 6.160625 11.458125 7 12 C7.48828125 14.91796875 7.48828125 14.91796875 7.3125 18.1875 C7.26738281 19.27417969 7.22226562 20.36085937 7.17578125 21.48046875 C7.11777344 22.31191406 7.05976563 23.14335937 7 24 C1.125 22.125 1.125 22.125 0 21 C-0.08685603 19.43827255 -0.10702219 17.87270656 -0.09765625 16.30859375 C-0.09443359 15.36435547 -0.09121094 14.42011719 -0.08789062 13.44726562 C-0.07951172 12.45404297 -0.07113281 11.46082031 -0.0625 10.4375 C-0.05798828 9.44041016 -0.05347656 8.44332031 -0.04882812 7.41601562 C-0.03700007 4.94395151 -0.02051849 2.47200482 0 0 Z " fill="#E57967" transform="translate(252,143)"/>
<path d="M0 0 C1.48199902 0.44909061 2.96055236 0.90956564 4.4375 1.375 C5.26121094 1.63023437 6.08492188 1.88546875 6.93359375 2.1484375 C9 3 9 3 10 5 C9.09636719 5.55429687 8.19273437 6.10859375 7.26171875 6.6796875 C6.07029421 7.41142856 4.87888897 8.14320104 3.6875 8.875 C3.09259766 9.23980469 2.49769531 9.60460937 1.88476562 9.98046875 C-0.77362299 11.61411539 -3.40343737 13.26895824 -6 15 C-3.10933941 4.44191344 -3.10933941 4.44191344 0 0 Z " fill="#EC865F" transform="translate(298,287)"/>
<path d="M0 0 C2.35171131 0.59861742 4.6859378 1.26924352 7 2 C8.31157516 4.62315032 7.89649988 6.23033436 7.5625 9.125 C7.46066406 10.03507813 7.35882813 10.94515625 7.25390625 11.8828125 C7.17011719 12.58148438 7.08632812 13.28015625 7 14 C6.01 14.33 5.02 14.66 4 15 C2.68 14.34 1.36 13.68 0 13 C0 8.71 0 4.42 0 0 Z " fill="#DA537F" transform="translate(189,142)"/>
<path d="M0 0 C0.99 0.33 1.98 0.66 3 1 C2.34773438 1.58265625 1.69546875 2.1653125 1.0234375 2.765625 C-6.71470955 10.02441781 -12.8299446 17.65248959 -13.6875 28.5625 C-13.69136719 29.34753906 -13.69523437 30.13257813 -13.69921875 30.94140625 C-14.07666988 33.52474059 -15.02423307 34.36829802 -17 36 C-17.79369416 24.2048229 -14.14230076 16.25978286 -7 7 C-4.76284624 4.55578573 -2.43793224 2.24318617 0 0 Z " fill="#36207E" transform="translate(122,215)"/>
<path d="M0 0 C0.33 0 0.66 0 1 0 C1.07516846 0.61182129 1.15033691 1.22364258 1.2277832 1.85400391 C1.58788854 4.7778524 1.9499228 7.70145699 2.3125 10.625 C2.44567627 11.70064209 2.57885254 12.77628418 2.71606445 13.88452148 C3.39761722 19.34373118 4.1011776 24.79804378 4.8671875 30.24609375 C5.00471436 31.22562012 5.14224121 32.20514648 5.28393555 33.21435547 C5.54679132 35.06945253 5.81367855 36.92398425 6.08520508 38.77783203 C6.76488622 43.57617121 7.13809292 48.15359627 7 53 C6.67 53 6.34 53 6 53 C4.96514475 47.3840781 3.9508082 41.76495118 2.9543457 36.14208984 C2.61344574 34.23453155 2.26720712 32.32791858 1.9152832 30.42236328 C-1.82848526 10.11122115 -1.82848526 10.11122115 0 0 Z " fill="#DBA346" transform="translate(322,169)"/>
<path d="M0 0 C0 0.99 0 1.98 0 3 C-8.91 4.32 -17.82 5.64 -27 7 C-26.67 5.68 -26.34 4.36 -26 3 C-22.60500696 2.49418146 -19.20888518 1.99637756 -15.8125 1.5 C-14.37293945 1.28537109 -14.37293945 1.28537109 -12.90429688 1.06640625 C-11.50727539 0.86337891 -11.50727539 0.86337891 -10.08203125 0.65625 C-9.22843018 0.53056641 -8.3748291 0.40488281 -7.49536133 0.27539062 C-4.97530325 -0.00272556 -2.53314218 -0.047608 0 0 Z " fill="#F2C335" transform="translate(190,136)"/>
<path d="M0 0 C3.81936528 1.55603771 6.26044438 3.95604931 9 7 C9 7.66 9 8.32 9 9 C5.37 9 1.74 9 -2 9 C-1.125 1.125 -1.125 1.125 0 0 Z " fill="#FEFCFA" transform="translate(236,88)"/>
<path d="M0 0 C3 2 3 2 3.73046875 4.3828125 C3.88128906 5.28773438 4.03210938 6.19265625 4.1875 7.125 C4.34605469 8.03507812 4.50460937 8.94515625 4.66796875 9.8828125 C4.83232422 10.93082031 4.83232422 10.93082031 5 12 C2.36 12 -0.28 12 -3 12 C-2.01 8.04 -1.02 4.08 0 0 Z " fill="#3F2F97" transform="translate(362,358)"/>
<path d="M0 0 C0.33 0 0.66 0 1 0 C1.33 5.28 1.66 10.56 2 16 C-0.64 15.01 -3.28 14.02 -6 13 C-6 11.02 -6 9.04 -6 7 C-3.03 7.495 -3.03 7.495 0 8 C0 5.36 0 2.72 0 0 Z " fill="#DA7765" transform="translate(233,111)"/>
<path d="M0 0 C1.98 0.66 3.96 1.32 6 2 C6 2.33 6 2.66 6 3 C4.35 3 2.7 3 1 3 C0.67 4.98 0.34 6.96 0 9 C0.66 9 1.32 9 2 9 C2 9.66 2 10.32 2 11 C-0.64 11 -3.28 11 -6 11 C-6 10.34 -6 9.68 -6 9 C-5.34 8.67 -4.68 8.34 -4 8 C-2.96514123 5.68191636 -1.9644586 3.34824702 -1 1 C-0.67 0.67 -0.34 0.34 0 0 Z " fill="#2B198C" transform="translate(360,369)"/>
<path d="M0 0 C0.94875 0.350625 1.8975 0.70125 2.875 1.0625 C5.87060172 2.35026777 5.87060172 2.35026777 8 1 C8.33 3.64 8.66 6.28 9 9 C5.23840019 8.47755558 2.67808998 7.7772785 0 5 C-0.25 2.3125 -0.25 2.3125 0 0 Z " fill="#D4527D" transform="translate(291,147)"/>
<path d="M0 0 C3.465 1.98 3.465 1.98 7 4 C7 6.31 7 8.62 7 11 C3.535 9.02 3.535 9.02 0 7 C0 4.69 0 2.38 0 0 Z " fill="#E98361" transform="translate(192,124)"/>
<path d="M0 0 C0.66 0.33 1.32 0.66 2 1 C1.24976563 1.54527344 0.49953125 2.09054688 -0.2734375 2.65234375 C-7.20334513 7.75813212 -13.7062488 13.11005142 -20 19 C-20.66 18.67 -21.32 18.34 -22 18 C-15.43093042 10.97350971 -8.84027522 4.17847224 0 0 Z " fill="#E3B63A" transform="translate(137,207)"/>
<path d="M0 0 C0.33 0 0.66 0 1 0 C1 1.65 1 3.3 1 5 C2.98 5.66 4.96 6.32 7 7 C7 8.98 7 10.96 7 13 C1.125 11.125 1.125 11.125 0 10 C-0.07205511 8.31391034 -0.08386068 6.62499341 -0.0625 4.9375 C-0.05347656 4.01839844 -0.04445312 3.09929687 -0.03515625 2.15234375 C-0.02355469 1.44207031 -0.01195312 0.73179687 0 0 Z " fill="#D73F8C" transform="translate(250,172)"/>
<path d="M0 0 C4 1 4 1 5 2 C5.1875 4.9375 5.1875 4.9375 5 8 C4.34 8.66 3.68 9.32 3 10 C2.01 10 1.02 10 0 10 C0 6.7 0 3.4 0 0 Z " fill="#DCD9EC" transform="translate(390,358)"/>
<path d="M0 0 C2.33944736 0.28730055 4.6739143 0.61936779 7 1 C6.34 3.31 5.68 5.62 5 8 C3.02 7.34 1.04 6.68 -1 6 C-1.042721 4.33388095 -1.04063832 2.66617115 -1 1 C-0.67 0.67 -0.34 0.34 0 0 Z " fill="#E56873" transform="translate(191,137)"/>
<path d="M0 0 C2.31 0.66 4.62 1.32 7 2 C7 3.65 7 5.3 7 7 C4 8 4 8 1.8125 7.0625 C1.214375 6.711875 0.61625 6.36125 0 6 C0 4.02 0 2.04 0 0 Z " fill="#D9408C" transform="translate(189,149)"/>
<path d="M0 0 C0.66 0.33 1.32 0.66 2 1 C2 2.32 2 3.64 2 5 C3.98 5 5.96 5 8 5 C7.67 6.32 7.34 7.64 7 9 C4.6875 9.6875 4.6875 9.6875 2 10 C0.1875 8.9375 0.1875 8.9375 -1 7 C-1.25 3.875 -1.25 3.875 -1 1 C-0.67 0.67 -0.34 0.34 0 0 Z " fill="#5D1D9F" transform="translate(246,193)"/>
<path d="M0 0 C3.465 1.485 3.465 1.485 7 3 C6.67 4.98 6.34 6.96 6 9 C4.02 8.34 2.04 7.68 0 7 C0 4.69 0 2.38 0 0 Z " fill="#E4567F" transform="translate(251,170)"/>
<path d="M0 0 C0.66 0 1.32 0 2 0 C1.74503693 2.60662244 1.47179707 5.20905522 1.1875 7.8125 C1.11724609 8.55048828 1.04699219 9.28847656 0.97460938 10.04882812 C0.35233341 15.54974762 0.35233341 15.54974762 -1.57421875 18.01171875 C-2.27998047 18.50091797 -2.27998047 18.50091797 -3 19 C-3.35368021 11.87399867 -2.95671348 6.52940894 0 0 Z " fill="#4D3B93" transform="translate(108,232)"/>
<path d="M0 0 C0.33 1.32 0.66 2.64 1 4 C2.98 4 4.96 4 7 4 C7.66 2.68 8.32 1.36 9 0 C8.125 6.875 8.125 6.875 7 8 C4.5625 8.1875 4.5625 8.1875 2 8 C0 6 0 6 -0.125 2.875 C-0.08375 1.92625 -0.0425 0.9775 0 0 Z " fill="#5D1AA1" transform="translate(186,168)"/>
<path d="M0 0 C0.78375 0.185625 1.5675 0.37125 2.375 0.5625 C4.97089775 1.25962266 4.97089775 1.25962266 7 0 C7.33 2.31 7.66 4.62 8 7 C5.69 6.67 3.38 6.34 1 6 C0.67 4.02 0.34 2.04 0 0 Z " fill="#EB8261" transform="translate(288,132)"/>
<path d="M0 0 C5.94 0 11.88 0 18 0 C18 2.31 18 4.62 18 7 C17.01 7 16.02 7 15 7 C15 5.02 15 3.04 15 1 C10.05 1.33 5.1 1.66 0 2 C0 1.34 0 0.68 0 0 Z " fill="#5445A2" transform="translate(218,356)"/>
<path d="M0 0 C2.31 0 4.62 0 7 0 C7 2.31 7 4.62 7 7 C5.02 6.34 3.04 5.68 1 5 C0.67 3.35 0.34 1.7 0 0 Z " fill="#E26574" transform="translate(291,143)"/>
<path d="M0 0 C0.33 0 0.66 0 1 0 C1 1.98 1 3.96 1 6 C1.66 6 2.32 6 3 6 C3 6.66 3 7.32 3 8 C0.36 8 -2.28 8 -5 8 C-5 7.34 -5 6.68 -5 6 C-4.34 6 -3.68 6 -3 6 C-2.690625 5.195625 -2.38125 4.39125 -2.0625 3.5625 C-1 1 -1 1 0 0 Z " fill="#28158A" transform="translate(333,372)"/>
<path d="M0 0 C0.33 0 0.66 0 1 0 C1 1.98 1 3.96 1 6 C1.66 6 2.32 6 3 6 C3 6.66 3 7.32 3 8 C0.36 8 -2.28 8 -5 8 C-5 7.34 -5 6.68 -5 6 C-4.34 6 -3.68 6 -3 6 C-2.690625 5.195625 -2.38125 4.39125 -2.0625 3.5625 C-1 1 -1 1 0 0 Z " fill="#28158A" transform="translate(282,372)"/>
<path d="M0 0 C1.7290774 -0.02725341 3.45828176 -0.04650987 5.1875 -0.0625 C6.15042969 -0.07410156 7.11335937 -0.08570313 8.10546875 -0.09765625 C10.85576513 -0.00486622 13.32479591 0.37888315 16 1 C16 1.33 16 1.66 16 2 C11.93231851 2.9861046 8.18075636 3.30405501 4 3 C1.78515625 1.484375 1.78515625 1.484375 0 0 Z " fill="#DB7367" transform="translate(169,294)"/>
<path d="M0 0 C1.32 0.33 2.64 0.66 4 1 C4 3.31 4 5.62 4 8 C2.68 8 1.36 8 0 8 C0 5.36 0 2.72 0 0 Z " fill="#F9F9FC" transform="translate(262,369)"/>
<path d="M0 0 C2.76223278 2.76223278 2.57856291 5.20706617 3 9 C1.35 9 -0.3 9 -2 9 C-1.34 6.03 -0.68 3.06 0 0 Z " fill="#E6E4F1" transform="translate(364,361)"/>
<path d="M0 0 C0.66 0 1.32 0 2 0 C2.33 2.97 2.66 5.94 3 9 C1.68 9 0.36 9 -1 9 C-0.67 6.03 -0.34 3.06 0 0 Z " fill="#E1DFEF" transform="translate(337,361)"/>
<path d="M0 0 C0.66 0 1.32 0 2 0 C2.33 2.97 2.66 5.94 3 9 C1.68 9 0.36 9 -1 9 C-0.67 6.03 -0.34 3.06 0 0 Z " fill="#E1DFEF" transform="translate(286,361)"/>
<path d="M0 0 C0.33 0 0.66 0 1 0 C1.99 4.29 2.98 8.58 4 13 C3.01 13 2.02 13 1 13 C-0.00496852 9.98509443 -0.10335303 7.95818308 -0.0625 4.8125 C-0.05347656 3.91144531 -0.04445313 3.01039063 -0.03515625 2.08203125 C-0.02355469 1.39496094 -0.01195313 0.70789063 0 0 Z " fill="#E2B53B" transform="translate(108,242)"/>
<path d="M0 0 C0.66 0.33 1.32 0.66 2 1 C1.67 3.97 1.34 6.94 1 10 C0.01 9.67 -0.98 9.34 -2 9 C-1.34 6.03 -0.68 3.06 0 0 Z " fill="#403098" transform="translate(335,360)"/>
<path d="M0 0 C0.66 0.33 1.32 0.66 2 1 C1.67 3.97 1.34 6.94 1 10 C0.01 9.67 -0.98 9.34 -2 9 C-1.34 6.03 -0.68 3.06 0 0 Z " fill="#403098" transform="translate(284,360)"/>
<path d="M0 0 C0.99 0 1.98 0 3 0 C3 2.31 3 4.62 3 7 C2.01 7 1.02 7 0 7 C0 4.69 0 2.38 0 0 Z " fill="#F9F9FC" transform="translate(262,359)"/>
<path d="M0 0 C0.33 0 0.66 0 1 0 C1 1.65 1 3.3 1 5 C-1.31 5.66 -3.62 6.32 -6 7 C-5.02433888 5.83040013 -4.044375 4.66438823 -3.0625 3.5 C-2.51722656 2.8503125 -1.97195313 2.200625 -1.41015625 1.53125 C-0.71212891 0.77328125 -0.71212891 0.77328125 0 0 Z " fill="#E16870" transform="translate(278,256)"/>
<path d="M0 0 C2.875 -0.1875 2.875 -0.1875 6 0 C6.66 0.99 7.32 1.98 8 3 C3.545 3.495 3.545 3.495 -1 4 C-0.67 2.68 -0.34 1.36 0 0 Z " fill="#E1B43B" transform="translate(164,139)"/>
<path d="M0 0 C0.99 0 1.98 0 3 0 C3 1.98 3 3.96 3 6 C2.01 6 1.02 6 0 6 C0 4.02 0 2.04 0 0 Z " fill="#433299" transform="translate(233,357)"/>
</svg>
